<?xml version="1.0" encoding="UTF-8"?>
<svg id="Camada_1" data-name="Camada 1" xmlns="http://www.w3.org/2000/svg" viewBox="0 0 72 42.86">
  <defs>
    <style>
      .cls-1 {
        fill: #ffd100;
      }
    </style>
  </defs>
  <path class="cls-1" d="M70.7,7.79c0,7.61-4.79,12.62-11.49,14.57-3.34.97-8.2,1.79-10.94,3.69-6.4,4.44,1.58,14.71-8.82,15.29-2.77.15-7.59.26-10.26-.12-4.51-.63-7.57-6.68-10.15-10.08-1.66-2.19-2.5-3.16-5.54-2.33-5.15,1.41-1.36,8.09-5.03,11.11-.75.62-2.33,1.31-3.3,1.31H1.36c.21-5.46-1.04-11.05,2.67-15.61,3.9-4.8,8.33-4.15,13.84-4.5,4.5-.29,7.16-3.37,5.89-7.89-1.28-4.55-6.34-3.99-10.08-4.07-.43,0-3.06-.05-3.21.05v11.05c-3.45.74-6.46,2.79-8.36,5.74l-.96,1.81V5.97c0-.07.14-.62.18-.77C1.89,2.93,3.75,1.67,6.02,1.51c3.71-.26,8.42-.06,12.16.11,4.67.22,8.57,1.13,11.74,4.81,4.4,5.11,3.97,14.45-1.42,18.7-.9.71-1.74,1.05-2.69,1.61-.09.05-.17-.03-.13.18,1.43,1.51,2.65,3.22,4.03,4.77s2.61,3.14,4.88,2.68c1.76-.36,1.41-2.24,1.57-3.57.59-4.88,1.82-8.24,5.88-11.16,8.88-6.39,19.38-2.64,19.38-11.66V1.62h4.43c2.37,0,4.85,1.87,4.85,6.16Z"/>
  <path class="cls-1" d="M61.42,41.13v-17.78c4.72-1.91,8.87-5.76,9.43-9.51v22.21c0,.67-.55,2.03-.82,2.53-1.73,3.16-5.54,2.73-8.61,2.55Z"/>
  <path class="cls-1" d="M45.59,1.62v14.41c-4.73,1.96-7.92,3.97-9.43,9.03.07-4.38-.09-8.74,0-13.12.07-3.62-.42-8.15,3.44-10.01.28-.14.94-.31,1.86-.31h4.14Z"/>
</svg>