<?xml version="1.0" encoding="UTF-8"?>
<svg id="Camada_1" data-name="Camada 1" xmlns="http://www.w3.org/2000/svg" viewBox="0 0 1000 1000">
  <defs>
    <style>
      .cls-1 {
        fill: #ffd100;
      }

      .cls-2 {
        fill: #3a3f4b;
      }
    </style>
  </defs>
  <rect class="cls-2" x="0" width="1000" height="1000"/>
  <g>
    <path class="cls-1" d="M841.34,369.95c0,74.18-46.67,123.03-112,142.07-32.6,9.5-79.92,17.46-106.65,36.02-62.38,43.29,15.39,143.39-85.97,149.04-26.98,1.51-74.02,2.52-100.02-1.13-44-6.19-73.8-65.15-98.93-98.29-16.2-21.36-24.36-30.78-54-22.69-50.23,13.72-13.31,78.85-49.02,108.34-7.34,6.06-22.74,12.76-32.2,12.76h-37.3c2.02-53.22-10.16-107.79,26.05-152.26,38.07-46.76,81.21-40.44,134.96-43.88,43.86-2.81,69.77-32.86,57.41-76.9-12.47-44.41-61.79-38.94-98.29-39.67-4.19-.08-29.84-.47-31.26.5l-.05,107.75c-33.63,7.19-62.9,27.22-81.46,55.98l-9.39,17.69v-213.04c0-.72,1.39-6.05,1.73-7.46,5.43-22.15,23.65-34.47,45.75-36,36.21-2.52,82.06-.61,118.55,1.11,45.49,2.14,83.57,11.05,114.52,46.94,42.93,49.79,38.74,140.93-13.89,182.32-8.8,6.92-17.01,10.27-26.21,15.7-.84.49-1.71-.3-1.3,1.74,13.99,14.71,25.86,31.39,39.32,46.52,12.95,14.55,25.47,30.57,47.6,26.1,17.18-3.47,13.72-21.88,15.28-34.79,5.72-47.58,17.73-80.36,57.32-108.85,86.55-62.27,188.97-25.73,188.97-113.66v-62.05h43.24c23.15,0,47.26,18.22,47.26,60.11Z"/>
    <path class="cls-1" d="M750.83,695.04v-173.41c45.99-18.63,86.5-56.15,91.98-92.72v216.57c-.03,6.55-5.33,19.82-8.01,24.69-16.91,30.77-53.98,26.61-83.97,24.86Z"/>
    <path class="cls-1" d="M596.51,309.84v140.47c-46.14,19.11-77.27,38.68-91.97,88.08.65-42.72-.88-85.23-.05-127.95.68-35.27-4.12-79.51,33.5-97.56,2.78-1.33,9.16-2.99,18.15-3.04h40.37Z"/>
  </g>
</svg>