<?xml version="1.0" encoding="utf-8"?>
<svg xmlns="http://www.w3.org/2000/svg" viewBox="0 0 1000 1000" width="512" height="512">
  <!-- Solid background matching native ic_launcher_background -->
  <rect width="1000" height="1000" fill="#3A3F4B" />
  
  <!-- Foreground yellow RH logo scaled & centered identically to the native app icon -->
  <g transform="translate(175, 175) scale(0.65)">
    <path
      d="M936.75 332.43c0 95.1 -59.84 157.73 -143.59 182.13 -41.79 12.18 -102.46 22.39 -136.73 46.17 -79.97 55.5 19.73 183.82 -110.21 191.07 -34.59 1.93 -94.9 3.23 -128.23 -1.45 -56.41 -7.93 -94.62 -83.52 -126.83 -126.01 -20.77 -27.39 -31.23 -39.46 -69.23 -29.09 -64.4 17.59 -17.06 101.09 -62.85 138.89 -9.42 7.77 -29.15 16.36 -41.29 16.36h-47.82c2.59 -68.23 -13.02 -138.19 33.39 -195.19 48.81 -59.94 104.11 -51.84 173.01 -56.25 56.23 -3.6 89.44 -42.13 73.6 -98.58 -15.98 -56.93 -79.21 -49.92 -126.01 -50.86 -5.38 -0.11 -38.25 -0.6 -40.08 0.64l-0.07 138.14c-43.11 9.22 -80.64 34.89 -104.43 71.77l-12.04 22.68v-273.11c0 -0.93 1.78 -7.76 2.22 -9.57 6.97 -28.4 30.32 -44.19 58.65 -46.16 46.42 -3.23 105.21 -0.78 151.98 1.42 58.32 2.75 107.14 14.17 146.81 60.18 55.04 63.83 49.67 180.67 -17.81 233.73 -11.29 8.87 -21.81 13.17 -33.6 20.12 -1.07 0.63 -2.19 -0.38 -1.66 2.23 17.93 18.86 33.15 40.24 50.41 59.64 16.6 18.65 32.66 39.19 61.02 33.46 22.03 -4.45 17.59 -28.05 19.58 -44.61 7.33 -61 22.73 -103.02 73.48 -139.54 110.96 -79.84 242.26 -32.98 242.26 -145.72v-79.55h55.44c29.68 0 60.59 23.35 60.59 77.06Z"
      fill="#FFD100" />
    <path
      d="M820.72 749.2v-222.31c58.96 -23.89 110.89 -71.99 117.92 -118.87v277.65c-0.03 8.4 -6.84 25.41 -10.27 31.66 -21.68 39.45 -69.21 34.11 -107.65 31.87Z"
      fill="#FFD100" />
    <path
      d="M622.88 255.36v180.08c-59.15 24.5 -99.06 49.59 -117.9 112.92 0.83 -54.76 -1.13 -109.26 -0.07 -164.03 0.88 -45.22 -5.28 -101.94 42.95 -125.08 3.56 -1.71 11.74 -3.83 23.27 -3.89h51.75Z"
      fill="#FFD100" />
  </g>
</svg>
