<?xml version="1.0" encoding="UTF-8"?>
<svg version="1.1" xmlns="http://www.w3.org/2000/svg" width="3508" height="1689">
<path d="M0 0 C68.97 0 137.94 0 209 0 C209.02187378 28.5555542 209.02187378 28.5555542 209.04418945 57.68798828 C209.05436708 70.40569078 209.06459494 83.1233931 209.07551575 95.84109497 C209.07620828 96.64927356 209.07690081 97.45745215 209.07761432 98.290121 C209.10100877 125.52934558 209.12847713 152.76856447 209.15898132 180.00778198 C209.15997689 180.89771915 209.16097246 181.78765632 209.16199819 182.70456129 C209.18366341 202.05146135 209.20598659 221.3983606 209.22898628 240.74525911 C209.24026349 250.234795 209.25139551 259.72433105 209.26245117 269.21386719 C209.26355374 270.15812345 209.2646563 271.10237972 209.26579228 272.07524981 C209.30137641 302.60828311 209.32739782 333.14131533 209.34838969 363.67436185 C209.37003649 395.08580816 209.40147149 426.49723015 209.44499113 457.90865412 C209.45115218 462.35879943 209.45720286 466.80894488 209.46318626 471.25909042 C209.46495759 472.57269814 209.46495759 472.57269814 209.46676469 473.9128434 C209.48538976 487.93466124 209.49388354 501.95646726 209.49846124 515.97829596 C209.50329908 530.1204751 209.51911315 544.2626098 209.54566566 558.40476508 C209.55972465 566.04879625 209.56921002 573.69276045 209.56500816 581.33680534 C209.52367394 669.9092149 213.91930522 771.38075169 279.5625 838.625 C280.366875 839.40875 281.17125 840.1925 282 841 C282.51175781 841.556875 283.02351563 842.11375 283.55078125 842.6875 C294.11706937 853.90993878 307.40610728 861.96949918 321 869 C321.90371338 869.47131348 321.90371338 869.47131348 322.82568359 869.95214844 C345.39807325 881.55726729 370.82134776 887.68162303 396 890 C397.68222656 890.16628906 397.68222656 890.16628906 399.3984375 890.3359375 C454.35587471 894.90543228 513.7208708 885.29683691 557 849 C614.04062899 800.30678013 630.34855502 723.6977606 636.421875 652.20703125 C651.6985353 435.34038733 638.65047627 217.4037613 639 0 C1129.38 0 1619.76 0 2125 0 C2125 54.12 2125 108.24 2125 164 C1851.76 164 1578.52 164 1297 164 C1297 452.75 1297 741.5 1297 1039 C1227.7 1039 1158.4 1039 1087 1039 C1087 750.25 1087 461.5 1087 164 C1008.13 164 929.26 164 848 164 C848.02320313 201.5271875 848.04640625 239.054375 848.0703125 277.71875 C848.07992158 300.07821089 848.08939178 322.43767016 848.09632993 344.79713178 C848.10041179 357.91840479 848.10458734 371.03967776 848.10905199 384.16095065 C848.10959168 385.74780273 848.11012842 387.33465481 848.11066218 388.9215069 C848.11917518 414.15807505 848.13416713 439.39463415 848.15259444 464.63119685 C848.17152014 490.59785498 848.18378485 516.56450812 848.18782998 542.53117302 C848.18840617 546.21024024 848.18905745 549.88930744 848.18975449 553.56837463 C848.18988933 554.2923711 848.19002418 555.01636757 848.19016311 555.76230332 C848.19251405 567.35286962 848.20175607 578.94342036 848.21366407 590.53398035 C848.22552501 602.2250226 848.22975424 613.91604829 848.22700275 625.60709631 C848.22573117 631.92585982 848.22757685 638.24457819 848.23841095 644.56333351 C848.28950338 675.9146288 848.06699863 707.08899591 844.1875 738.25 C844.10318726 738.94059509 844.01887451 739.63119019 843.93200684 740.3427124 C833.98860778 821.41278843 804.84138818 896.08102792 728.375 971.375 C725.93077281 973.26888708 723.46703777 975.13597425 721 977 C720.34322266 977.50257324 719.68644531 978.00514648 719.00976562 978.52294922 C706.3389095 988.17650508 692.95146511 996.33094839 679 1004 C678.11393066 1004.48710449 677.22786133 1004.97420898 676.31494141 1005.47607422 C624.60076639 1033.47444413 565.08547376 1046.49035562 507.08666992 1052.77282715 C505.71085532 1052.92261017 504.33535308 1053.07529483 502.96020508 1053.2310791 C477.37519383 1056.12573366 451.74779558 1056.29001361 426.03126144 1056.31007385 C423.41732792 1056.31246134 420.80341204 1056.31777872 418.18948364 1056.32336426 C390.60210293 1056.366499 363.17491982 1055.50227529 335.75 1052.25 C334.6927623 1052.12644638 334.6927623 1052.12644638 333.61416626 1052.00039673 C239.79504889 1040.94741479 142.49353096 1008.50853822 80.25 933.5 C78.82024331 931.67685674 77.40452257 929.8426535 76 928 C75.07175635 926.81238918 74.14336071 925.62489715 73.21484375 924.4375 C26.73984776 864.3782057 7.3651524 790.49867251 1 716 C0.91057666 715.03034095 0.82115332 714.0606819 0.72902018 713.06163925 C-0.29803655 700.28295963 -0.1385988 687.48510769 -0.12226619 674.6736229 C-0.1188002 671.07248743 -0.12120878 667.47135481 -0.12284368 663.87021869 C-0.12490826 657.57072696 -0.12328938 651.2712447 -0.11920547 644.97175407 C-0.11314988 635.60476292 -0.11287158 626.23777771 -0.11374746 616.87078495 C-0.11505895 601.11109057 -0.11172915 585.35140039 -0.10573006 569.59170723 C-0.09980772 553.99355613 -0.09596304 538.39540678 -0.09487724 522.79725456 C-0.0948085 521.82645656 -0.09473976 520.85565857 -0.09466894 519.85544245 C-0.0943306 514.92500534 -0.09402922 509.99456824 -0.09374207 505.06413113 C-0.09164312 470.16571839 -0.08490986 435.26730794 -0.07543945 400.36889648 C-0.06625122 366.47111015 -0.05916947 332.57332444 -0.05493164 298.67553711 C-0.05480011 297.63017681 -0.05466859 296.58481651 -0.05453308 295.50777862 C-0.05321453 285.00958957 -0.05193872 274.51140052 -0.05069422 264.01321147 C-0.04815818 242.62826867 -0.04533693 221.24332592 -0.04234314 199.85838318 C-0.04220585 198.87519479 -0.04206856 197.89200641 -0.04192711 196.87902443 C-0.03770505 166.75061257 -0.0322744 136.6222011 -0.02565002 106.49378967 C-0.02536869 105.21102738 -0.02536869 105.21102738 -0.02508167 103.9023507 C-0.01746734 69.26823363 -0.00857277 34.63411685 0 0 Z " fill="#FFFFFF" transform="translate(101,237)"/>
<path d="M0 0 C257.73 0 515.46 0 781 0 C781 54.12 781 108.24 781 164 C592.24 164 403.48 164 209 164 C209 384.44 209 604.88 209 832 C140.03 832 71.06 832 0 832 C0 557.44 0 282.88 0 0 Z " fill="#FECC00" transform="translate(1444,444)"/>
<path d="M0 0 C402.78287462 0 402.78287462 0 450 40 C450.50724609 40.42893555 451.01449219 40.85787109 451.53710938 41.29980469 C484.31032571 69.31695858 503.4658856 111.34475458 507 154 C507.34933673 160.53742356 507.34124922 167.08017158 507.3125 173.625 C507.31034485 174.50806824 507.3081897 175.39113647 507.30596924 176.30096436 C507.25471189 189.39114382 506.9390428 202.18818329 504 215 C503.69400879 216.34650635 503.69400879 216.34650635 503.38183594 217.72021484 C500.48215439 230.0554686 496.63160278 241.6506116 491 253 C490.69336426 253.6295459 490.38672852 254.2590918 490.07080078 254.90771484 C482.80182711 269.69813562 473.40842557 282.16904015 462 294 C461.28457031 294.77859375 460.56914062 295.5571875 459.83203125 296.359375 C431.4403077 326.40239955 388.3754627 339.05439309 349 346 C349 346.66 349 347.32 349 348 C351.6179426 349.68099472 354.24564243 351.25775795 356.9375 352.8125 C366.53983024 358.52377086 375.32057418 364.98070375 384 372 C384.59200195 372.4748584 385.18400391 372.9497168 385.79394531 373.43896484 C400.89032765 385.64079866 415.12002538 399.4591005 426.61279297 415.12988281 C428.11921891 417.16072103 429.6674766 419.15471085 431.22265625 421.1484375 C448.6345482 443.6554308 463.91409969 467.8970871 479 492 C479.59296875 492.94568848 480.1859375 493.89137695 480.796875 494.86572266 C484.57591914 500.89452863 488.34458595 506.92975349 492.10888672 512.96777344 C495.23543421 517.98090536 498.36796466 522.99029558 501.5 528 C505.28669989 534.05763112 509.07260999 540.1157505 512.85546875 546.17578125 C518.55022133 555.29664513 524.25075639 564.41336218 530 573.5 C534.61848048 580.80353362 539.22285129 588.11580966 543.8125 595.4375 C544.42287109 596.40816406 545.03324219 597.37882812 545.66210938 598.37890625 C548.76085435 603.32880574 551.78657715 608.31054374 554.72143555 613.35961914 C555.33915329 614.42144913 555.95687103 615.48327911 556.5933075 616.57728577 C557.05751602 617.37678146 557.52172455 618.17627716 558 619 C538.45054312 619.25715618 518.90143017 619.45103095 499.35063171 619.56993389 C490.27240404 619.62661486 481.19522821 619.70386297 472.11767578 619.82983398 C464.2040047 619.93960107 456.29109539 620.01046921 448.37668419 620.03497344 C444.18697153 620.04929507 439.9994377 620.08285283 435.8104248 620.16303062 C431.86330254 620.23796324 427.91924541 620.26067983 423.97147942 620.24418449 C422.52659342 620.24719954 421.08160019 620.26893808 419.63733101 620.31126022 C408.7640219 620.61413331 408.7640219 620.61413331 404.44088745 616.65833473 C402.37549054 613.85683856 400.67306706 611.04870303 399 608 C397.79576366 606.17782475 396.57867298 604.36401965 395.34375 602.5625 C394.68117188 601.55960938 394.01859375 600.55671875 393.3359375 599.5234375 C390.49401836 595.22425234 387.60470968 590.95719023 384.71875 586.6875 C383.54814439 584.95444917 382.37757236 583.22137565 381.20703125 581.48828125 C380.6032666 580.59447754 379.99950195 579.70067383 379.37744141 578.77978516 C369.54094292 564.21562758 359.73259161 549.63381149 350 535 C339.72252228 519.54694187 329.35838738 504.15323458 318.96875 488.77539062 C313.37078377 480.4886089 307.78482442 472.19470699 302.24449158 463.8692627 C294.00710546 451.49362432 285.46634402 439.35235347 276.70458984 427.34277344 C274.96785603 424.9558216 273.24334303 422.56035824 271.51953125 420.1640625 C253.2687453 394.92124049 233.24836248 371.80024895 201.4375 365.25 C176.13657916 361.50171543 151.74402313 361.5720894 126 361 C126 446.14 126 531.28 126 619 C84.42 619 42.84 619 0 619 C0 414.73 0 210.46 0 0 Z M126 105 C126 156.48 126 207.96 126 261 C160.3715625 261.061875 160.3715625 261.061875 195.4375 261.125 C202.60267334 261.14320801 209.76784668 261.16141602 217.15014648 261.18017578 C223.72125912 261.18687536 223.72125912 261.18687536 230.29237366 261.19088745 C233.16012334 261.19270873 236.02779469 261.20002797 238.89552307 261.21115112 C254.9373294 261.27051 270.9066398 261.05766728 286.92211914 260.07373047 C287.60362876 260.032118 288.28513838 259.99050553 288.9872998 259.94763207 C315.87177696 258.26653319 340.62485734 255.04694079 360.22265625 234.69140625 C371.55831524 221.39002605 377.31175113 204.35584094 378 187 C378.03996094 186.25234375 378.07992187 185.5046875 378.12109375 184.734375 C378.71707064 163.55966662 372.80894089 143.42827058 358.3125 127.6875 C338.48047931 109.42013577 314.18230198 106.15255351 288.26953125 105.44140625 C287.51749735 105.42034883 286.76546345 105.39929142 285.99064064 105.3775959 C255.24140521 104.55717676 224.4425957 104.89734093 193.6875 104.9375 C160.1821875 104.9684375 160.1821875 104.9684375 126 105 Z " fill="#FFFFFF" transform="translate(2815,655)"/>
<path d="M0 0 C173.91 0 347.82 0 527 0 C527 54.45 527 108.9 527 165 C418.1 165 309.2 165 197 165 C197 315.15 197 465.3 197 620 C131.99 620 66.98 620 0 620 C0 415.4 0 210.8 0 0 Z " fill="#FFFFFF" transform="translate(1698,656)"/>
<path d="M0 0 C342.92437404 0 342.92437404 0 387 24 C388.04414063 24.55300781 389.08828125 25.10601563 390.1640625 25.67578125 C407.89242125 35.47549407 423.72312264 49.99741581 436 66 C436.79792969 66.97066406 437.59585938 67.94132813 438.41796875 68.94140625 C471.07197386 108.99249121 478.61297667 166.02879326 474 216 C468.78120236 265.02884466 449.02203636 309.45337725 410.84375 341.7265625 C347.41224097 392.18344469 263.76539942 386.34244983 187.25 386.125 C166.7075 386.08375 146.165 386.0425 125 386 C125 463.22 125 540.44 125 620 C83.75 620 42.5 620 0 620 C0 415.4 0 210.8 0 0 Z M125 106 C125 163.42 125 220.84 125 280 C141.5825 280.04125 158.165 280.0825 175.25 280.125 C180.42461914 280.14320801 185.59923828 280.16141602 190.93066406 280.18017578 C259.28259851 282.358336 259.28259851 282.358336 319 254 C320.02480469 253.11441406 320.02480469 253.11441406 321.0703125 252.2109375 C336.64379171 237.85890764 344.07943794 216.64784836 345.16015625 195.9296875 C345.75612758 173.17912973 339.10196673 152.14763127 323.3671875 135.40625 C322.58601563 134.6121875 321.80484375 133.818125 321 133 C320.23945313 132.2265625 319.47890625 131.453125 318.6953125 130.65625 C283.84202689 97.28851426 223.0552296 105.73193723 179.1875 105.875 C161.305625 105.91625 143.42375 105.9575 125 106 Z " fill="#FFFFFF" transform="translate(2308,655)"/>
<path d="M0 0 C7.8375 -0.04125 15.675 -0.0825 23.75 -0.125 C26.19889648 -0.14320801 28.64779297 -0.16141602 31.17089844 -0.18017578 C33.15038841 -0.18602665 35.12988082 -0.19112079 37.109375 -0.1953125 C38.60428467 -0.2106604 38.60428467 -0.2106604 40.12939453 -0.22631836 C50.53470228 -0.22885006 60.8897223 -0.06600033 68.6171875 7.60546875 C74.76112357 14.26384923 75.47302469 20.69602914 75.3046875 29.58984375 C74.70278754 36.32649335 72.11664142 40.19055157 67.3125 44.8125 C63.2467803 48.1661445 59.08191025 49.76481348 54 51 C54.4846875 51.38929687 54.969375 51.77859375 55.46875 52.1796875 C64.92562802 60.07254339 71.17559135 69.5517384 77.31958008 80.10668945 C77.76841553 80.86812256 78.21725098 81.62955566 78.6796875 82.4140625 C79.07913574 83.1045166 79.47858398 83.7949707 79.89013672 84.50634766 C80.43951904 85.24570557 80.43951904 85.24570557 81 86 C81.66 86 82.32 86 83 86 C85.80942044 78.92154576 88.61829231 71.84287401 91.42654896 64.76395798 C92.73195467 61.4734001 94.03751791 58.18290496 95.34350586 54.89257812 C102.6000927 36.60977503 109.81936884 18.31278111 117 0 C123.93 0 130.86 0 138 0 C146.23962974 19.18170684 154.13521045 38.4998207 162.00488281 57.83569336 C162.42588257 58.86981857 162.84688232 59.90394379 163.28063965 60.96940613 C164.09850383 62.97921236 164.91566179 64.98930615 165.73205566 66.99971008 C168.17164402 72.99960404 170.65745475 78.97458538 173.24462891 84.91259766 C174 87 174 87 174 90 C167.07 90 160.14 90 153 90 C151.2675 85.8853125 151.2675 85.8853125 149.5 81.6875 C149.13455078 80.82729248 148.76910156 79.96708496 148.39257812 79.08081055 C147.9662207 78.05661011 147.9662207 78.05661011 147.53125 77.01171875 C147.23798828 76.31522217 146.94472656 75.61872559 146.64257812 74.90112305 C146 73 146 73 146 70 C134.12 70 122.24 70 110 70 C109.01 73.3 108.02 76.6 107 80 C106.30332495 81.88731367 105.58249412 83.76639351 104.8125 85.625 C104.29623047 86.88183594 104.29623047 86.88183594 103.76953125 88.1640625 C103.51558594 88.76992187 103.26164062 89.37578125 103 90 C96.91750795 90.3731238 90.84175938 90.64391575 84.75048828 90.82397461 C82.68355277 90.89905077 80.61740477 91.00116541 78.55322266 91.1315918 C61.92000638 92.1556068 61.92000638 92.1556068 57.14059448 88.62734985 C53.93778668 85.13553598 51.85638647 81.13663325 49.88439941 76.85787964 C48.70606093 74.38251495 47.22154431 72.19480799 45.64453125 69.95703125 C45.16693359 69.25642578 44.68933594 68.55582031 44.19726562 67.83398438 C43.74029297 67.16689453 43.28332031 66.49980469 42.8125 65.8125 C42.10963867 64.74805664 42.10963867 64.74805664 41.39257812 63.66210938 C38.18918237 59.02045431 35.35345025 56.20371854 30 54 C26.37 53.67 22.74 53.34 19 53 C19 65.21 19 77.42 19 90 C12.73 90 6.46 90 0 90 C0 60.3 0 30.6 0 0 Z M19 16 C19 23.26 19 30.52 19 38 C22.609375 38.04125 26.21875 38.0825 29.9375 38.125 C31.61573853 38.15231201 31.61573853 38.15231201 33.32788086 38.18017578 C44.11050574 38.35733578 44.11050574 38.35733578 53.5625 33.9375 C55.54516612 29.88596489 56.08041383 26.41769212 55 22 C52.62404321 18.84198847 49.73984688 17.24661563 46 16 C43.93501108 15.91684248 41.8674211 15.89264122 39.80078125 15.90234375 C37.98803711 15.90717773 37.98803711 15.90717773 36.13867188 15.91210938 C34.87603516 15.92048828 33.61339844 15.92886719 32.3125 15.9375 C31.03826172 15.94201172 29.76402344 15.94652344 28.45117188 15.95117188 C25.3007613 15.96297117 22.15037481 15.98090682 19 16 Z M127 23 C125.43138156 27.25339842 123.86485483 31.50755891 122.30029297 35.76245117 C121.76734448 37.21090696 121.23381702 38.65914984 120.69970703 40.10717773 C119.93371013 42.18418047 119.16977383 44.26193083 118.40625 46.33984375 C118.16563843 46.99089584 117.92502686 47.64194794 117.67712402 48.31272888 C116.49795214 51.08460673 116.49795214 51.08460673 116 54 C123.59 54 131.18 54 139 54 C136.67043731 46.11625761 136.67043731 46.11625761 133.95703125 38.4296875 C133.60576172 37.51445313 133.25449219 36.59921875 132.89257812 35.65625 C132.53615234 34.7384375 132.17972656 33.820625 131.8125 32.875 C131.44447266 31.91851563 131.07644531 30.96203125 130.69726562 29.9765625 C129.80144555 27.64975711 128.90232227 25.32428979 128 23 C127.67 23 127.34 23 127 23 Z " fill="#FFFFFF" transform="translate(3065,1361)"/>
<path d="M0 0 C11.50875 -0.061875 11.50875 -0.061875 23.25 -0.125 C25.64668945 -0.14320801 28.04337891 -0.16141602 30.51269531 -0.18017578 C32.45116961 -0.18602694 34.3896464 -0.19112101 36.328125 -0.1953125 C37.79064697 -0.2106604 37.79064697 -0.2106604 39.28271484 -0.22631836 C49.37202831 -0.2288244 60.08595141 0.04077862 68 7 C73.70287447 13.11126446 75.52233385 20.11848004 75.30859375 28.37890625 C74.58091213 34.55959442 72.45610952 40.06464163 67.875 44.375 C63.69658006 47.57936562 58.92390191 49.26691423 54 51 C54.56557617 51.4549585 55.13115234 51.90991699 55.71386719 52.37866211 C61.78724646 57.48408861 66.03204747 62.87771324 70.25 69.5625 C71.4209239 71.37691622 72.59278059 73.19073086 73.765625 75.00390625 C74.26868164 75.79611572 74.77173828 76.5883252 75.29003906 77.40454102 C77.44060772 80.66877509 79.7142105 83.82898922 82 87 C82.21947296 86.4513176 82.43894592 85.90263519 82.66506958 85.33732605 C83.34059055 83.64852362 84.01611251 81.95972157 84.69163513 80.2709198 C85.49931017 78.25172704 86.30697799 76.23253139 87.11463928 74.21333313 C89.36442719 68.58877012 91.61434533 62.96425926 93.86450195 57.33984375 C98.0490382 46.87996359 102.23267212 36.41973014 106.41015625 25.95703125 C107.36947147 23.55528576 108.32885481 21.15356751 109.28826904 18.75186157 C109.88643942 17.25391838 110.48430052 15.75585164 111.08184814 14.25765991 C111.90146665 12.20272084 112.72210238 10.14819085 113.54296875 8.09375 C113.99696045 6.95615234 114.45095215 5.81855469 114.91870117 4.64648438 C116 2 116 2 117 0 C123.93 0 130.86 0 138 0 C138.87398437 2.16046875 139.74796875 4.3209375 140.6484375 6.546875 C141.55995782 8.79871499 142.47177595 11.05043414 143.38366699 13.30212402 C144.04466892 14.934321 144.70555756 16.56656386 145.36633301 18.19885254 C149.51918152 28.4551984 153.69287575 38.70264773 157.8984375 48.9375 C158.30367645 49.92453918 158.70891541 50.91157837 159.12643433 51.92852783 C161.11254422 56.76597181 163.10146695 61.60222245 165.09521484 66.43652344 C165.82923724 68.22325156 166.56313017 70.01003288 167.296875 71.796875 C167.79288712 72.99485718 167.79288712 72.99485718 168.29891968 74.21704102 C168.61116486 74.97911865 168.92341003 75.74119629 169.24511719 76.52636719 C169.64691193 77.50147247 169.64691193 77.50147247 170.05682373 78.49627686 C171.48581763 82.28963469 172.71814247 86.15442741 174 90 C167.07 90 160.14 90 153 90 C150.08064633 83.68788396 147.44885094 77.53026917 145 71 C133.12 70.67 121.24 70.34 109 70 C108.67 71.98 108.34 73.96 108 76 C107.22007078 78.28972463 106.38503757 80.56131432 105.5 82.8125 C104.83484375 84.52373047 104.83484375 84.52373047 104.15625 86.26953125 C103 89 103 89 102 90 C66.33095095 94.0040623 66.33095095 94.0040623 55.72265625 88.20996094 C51.0284785 83.76875144 48.41228954 78.41041199 46.03808594 72.46630859 C44.59751369 69.04376372 42.69443981 66.44365993 40.4375 63.5 C39.87933594 62.7059375 39.32117187 61.911875 38.74609375 61.09375 C32.64110939 53.77323184 28.952056 53.90473236 19 53 C19 65.21 19 77.42 19 90 C12.73 90 6.46 90 0 90 C0 60.3 0 30.6 0 0 Z M19 16 C19 23.26 19 30.52 19 38 C22.444375 38.04125 25.88875 38.0825 29.4375 38.125 C31.03742798 38.15231201 31.03742798 38.15231201 32.66967773 38.18017578 C43.23028232 38.32504194 43.23028232 38.32504194 52.5 34 C55.34435571 30.20752572 55.14208267 27.78247302 54.57421875 23.1953125 C54.11318027 20.72851723 54.11318027 20.72851723 51.6875 18.5 C47.3578255 16.08343749 43.85492315 15.87816214 38.921875 15.90234375 C37.18164062 15.90717773 37.18164062 15.90717773 35.40625 15.91210938 C33.59640625 15.92467773 33.59640625 15.92467773 31.75 15.9375 C29.91695312 15.94426758 29.91695312 15.94426758 28.046875 15.95117188 C25.03122908 15.96295174 22.01560835 15.98088699 19 16 Z M127 24 C124.08041159 30.82098531 121.31037848 37.68513698 118.6875 44.625 C118.42114746 45.32367187 118.15479492 46.02234375 117.88037109 46.7421875 C116.47952582 50.27362236 116.47952582 50.27362236 116 54 C123.59 54 131.18 54 139 54 C135.37 44.1 131.74 34.2 128 24 C127.67 24 127.34 24 127 24 Z " fill="#FFFFFF" transform="translate(2381,1361)"/>
<path d="M0 0 C7.79625 -0.061875 15.5925 -0.12375 23.625 -0.1875 C27.27103271 -0.22846802 27.27103271 -0.22846802 30.99072266 -0.27026367 C58.87975605 -0.45568784 58.87975605 -0.45568784 67.625 6.0625 C72.96821817 11.53184564 75.15844219 17.94303353 75.5 25.5 C75.1838427 32.7104262 73.23024153 39.32360196 67.875 44.375 C63.70984431 47.56919347 58.92971537 49.31377945 54 51 C54.90878906 51.71349609 54.90878906 51.71349609 55.8359375 52.44140625 C63.66383244 58.98070926 68.67001992 66.40388799 74 75 C74.80102674 76.26238981 75.603087 77.5241245 76.40625 78.78515625 C82 87.65534856 82 87.65534856 82 90 C74.41913923 91.19984148 66.45759009 92.23779028 59 90 C53.45908333 85.81890655 50.39795741 79.4162837 47.26220703 73.36376953 C45.58394592 70.22084418 43.63166508 67.47899726 41.5 64.625 C40.58154297 63.37976562 40.58154297 63.37976562 39.64453125 62.109375 C35.64888143 56.98096211 35.64888143 56.98096211 30 54 C26.37 53.67 22.74 53.34 19 53 C19 65.21 19 77.42 19 90 C12.73 90 6.46 90 0 90 C0 60.3 0 30.6 0 0 Z M19 16 C19 23.26 19 30.52 19 38 C22.609375 38.04125 26.21875 38.0825 29.9375 38.125 C31.61573853 38.15231201 31.61573853 38.15231201 33.32788086 38.18017578 C43.577978 38.50835594 43.577978 38.50835594 52.68334961 34.61376953 C55.54956928 31.10075043 55.37342012 27.3316734 55 23 C52.57323946 18.9553991 50.43009142 17.40773663 46 16 C42.90638738 15.72664051 42.90638738 15.72664051 39.60546875 15.8046875 C38.40341797 15.81113281 37.20136719 15.81757812 35.96289062 15.82421875 C34.09407227 15.84935547 34.09407227 15.84935547 32.1875 15.875 C30.92228516 15.88402344 29.65707031 15.89304687 28.35351562 15.90234375 C25.23559595 15.92587522 22.11777378 15.96174511 19 16 Z " fill="#FFFFFF" transform="translate(473,1361)"/>
<path d="M0 0 C19 0 19 0 23.390625 3.96875 C24.88671875 6.60449219 24.88671875 6.60449219 26.25 9.5 C27.35757701 11.51661354 28.46702176 13.53220217 29.578125 15.546875 C30.12919922 16.60326172 30.68027344 17.65964844 31.24804688 18.74804688 C34.21611851 24.25734371 37.63241452 29.47914068 41 34.75 C42.21165214 36.68021232 43.42011981 38.61242824 44.625 40.546875 C45.13289063 41.35995117 45.64078125 42.17302734 46.1640625 43.01074219 C48.81044213 47.31955498 51.39840131 51.66400219 54 56 C54.33 37.52 54.66 19.04 55 0 C60.94 0 66.88 0 73 0 C73 29.7 73 59.4 73 90 C53 90 53 90 48.1875 85.41796875 C46.51757812 82.43041992 46.51757812 82.43041992 45 79.1875 C43.80333567 76.97848779 42.60540228 74.77016263 41.40625 72.5625 C40.8390625 71.45519531 40.271875 70.34789062 39.6875 69.20703125 C37.22338979 64.52408105 34.38288759 60.12021405 31.5 55.6875 C30.59180544 54.25513736 29.68549422 52.8215785 28.78125 51.38671875 C25.52697083 46.25391608 22.26286036 41.12735199 19 36 C18.67 53.82 18.34 71.64 18 90 C12.06 90 6.12 90 0 90 C0 60.3 0 30.6 0 0 Z " fill="#FFFFFF" transform="translate(3248,1361)"/>
<path d="M0 0 C19 0 19 0 23.71484375 4.58203125 C24.86076502 6.62016858 25.93290546 8.70111913 26.9375 10.8125 C28.14461741 13.0241016 29.35296659 15.2350313 30.5625 17.4453125 C31.13613281 18.55293945 31.70976563 19.66056641 32.30078125 20.80175781 C34.76087867 25.43211358 37.57828897 29.79671608 40.4375 34.1875 C45.03907471 41.40979526 49.51108808 48.70551814 54 56 C54.33 37.52 54.66 19.04 55 0 C60.94 0 66.88 0 73 0 C73 29.7 73 59.4 73 90 C53 90 53 90 48.51171875 86.03125 C47.02514648 83.39501953 47.02514648 83.39501953 45.6875 80.5 C44.59046986 78.48592772 43.49143587 76.47294588 42.390625 74.4609375 C41.84599609 73.40487305 41.30136719 72.34880859 40.74023438 71.26074219 C37.77123729 65.69762139 34.3287503 60.43714516 30.9375 55.125 C29.71489478 53.17086588 28.49471417 51.21521203 27.27734375 49.2578125 C24.5222545 44.83600023 21.76124729 40.41799567 19 36 C18.67 53.82 18.34 71.64 18 90 C12.06 90 6.12 90 0 90 C0 60.3 0 30.6 0 0 Z " fill="#FFFFFF" transform="translate(1331,1361)"/>
<path d="M0 0 C19 0 19 0 22.98828125 3.6015625 C24.22558594 5.99389648 24.22558594 5.99389648 25.3125 8.625 C26.23567235 10.46486455 27.16427373 12.30201282 28.09765625 14.13671875 C28.56059082 15.09884277 29.02352539 16.0609668 29.50048828 17.05224609 C32.05533344 22.07458417 35.16680693 26.72783112 38.25 31.4375 C43.27009504 39.23195402 48.13930525 47.10137104 53 55 C53.33 36.85 53.66 18.7 54 0 C59.94 0 65.88 0 72 0 C72 29.7 72 59.4 72 90 C53 90 53 90 48.72265625 86.29296875 C47.31738281 83.85400391 47.31738281 83.85400391 46.0625 81.1875 C45.03839279 79.34470051 44.01363719 77.50226123 42.98828125 75.66015625 C42.49666504 74.71672363 42.00504883 73.77329102 41.49853516 72.80126953 C39.15538442 68.42112754 36.44717238 64.29272931 33.75 60.125 C32.84698934 58.69134248 31.94594392 57.25644523 31.046875 55.8203125 C27.06708507 49.52408074 23.02787321 43.26558055 19 37 C18.67 54.49 18.34 71.98 18 90 C12.06 90 6.12 90 0 90 C0 60.3 0 30.6 0 0 Z " fill="#FFFFFF" transform="translate(178,1361)"/>
<path d="M0 0 C0.94294922 -0.020625 1.88589844 -0.04125 2.85742188 -0.0625 C13.34918189 -0.12018665 22.22243372 2.41528883 30.3125 9.25 C35.48608106 14.50265326 37.65412403 20.15098707 39.3125 27.25 C36.91780271 27.75604924 34.52198283 28.25499517 32.125 28.75 C31.45146484 28.89308594 30.77792969 29.03617188 30.08398438 29.18359375 C26.43740207 29.93069842 23.03601043 30.42352282 19.3125 30.25 C18.94125 29.363125 18.57 28.47625 18.1875 27.5625 C15.54863605 22.90050703 12.3855329 20.23940207 7.5625 17.9375 C-0.82718452 16.16275904 -8.19542231 16.88932611 -15.6875 21.25 C-21.22530282 25.64526666 -23.59296794 31.39093245 -24.6875 38.25 C-25.53620845 49.18890893 -25.12432329 59.84036836 -18.14453125 68.78125 C-13.34329191 73.62110521 -7.40114953 75.36495506 -0.75 75.625 C5.48395382 75.59976132 14.72310648 73.83939352 19.3125 69.25 C19.54613881 67.40108054 19.72553635 65.54511969 19.875 63.6875 C20.019375 61.893125 20.16375 60.09875 20.3125 58.25 C13.3825 58.25 6.4525 58.25 -0.6875 58.25 C-0.6875 52.97 -0.6875 47.69 -0.6875 42.25 C12.8425 42.25 26.3725 42.25 40.3125 42.25 C40.621875 51.1909375 40.621875 51.1909375 40.9375 60.3125 C41.02854004 62.18043213 41.11958008 64.04836426 41.21337891 65.97290039 C41.54843091 77.62489638 41.54843091 77.62489638 38.30126953 81.89453125 C35.70450192 83.77554534 33.28174847 85.05333582 30.3125 86.25 C29.28745361 86.72336792 29.28745361 86.72336792 28.24169922 87.20629883 C26.51443062 87.94902894 24.72517897 88.54249786 22.9375 89.125 C21.19339844 89.70894531 21.19339844 89.70894531 19.4140625 90.3046875 C6.53451458 94.23019203 -10.57915873 94.5082438 -22.6875 88.25 C-34.12686122 82.12241824 -40.59471975 73.14045352 -44.4375 60.8515625 C-47.97684359 46.05513998 -46.05352836 30.78427614 -38.328125 17.71484375 C-32.58977419 9.0936548 -23.43479749 3.10417549 -13.2902832 0.67626953 C-8.87253306 -0.04724531 -4.46767451 0.02393931 0 0 Z " fill="#FFFFFF" transform="translate(1738.6875,1359.75)"/>
<path d="M0 0 C0.9182959 0.00902344 1.8365918 0.01804687 2.78271484 0.02734375 C15.09249451 0.3404701 24.45249297 4.08263946 33.625 12.4375 C43.79883666 23.98617945 45.24818754 38.52724852 44.765625 53.21826172 C44.06019009 64.3509064 39.66724413 74.10235875 32.1796875 82.25390625 C23.00824079 90.09310917 12.75326605 92.62506565 1 92.6875 C0.05253906 92.708125 -0.89492187 92.72875 -1.87109375 92.75 C-13.45035777 92.81336123 -23.63675119 89.41540167 -32.3828125 81.65625 C-42.65925457 70.80148002 -44.99961215 56.88521109 -44.62109375 42.47265625 C-44.12952724 32.183998 -41.32801486 23.81751323 -35.375 15.4375 C-34.6325 14.365 -33.89 13.2925 -33.125 12.1875 C-24.05890285 3.12140285 -12.54769603 -0.14863086 0 0 Z M-19.1953125 25.57421875 C-25.04073319 34.80688652 -25.6277219 45.67699397 -23.9140625 56.29296875 C-22.09853828 63.18128124 -18.99221672 68.82929637 -13.1484375 73.04296875 C-6.22563167 76.96589205 0.40738389 77.83214582 8.109375 75.7734375 C14.73346681 73.21716046 18.55879474 69.28669236 21.87890625 63.1015625 C26.09872185 53.30923781 26.36582528 40.68250101 22.72265625 30.6171875 C19.45545474 24.12929269 14.81532231 19.6470461 8.0078125 17.0625 C-2.15061215 14.39799517 -12.73552194 17.05240464 -19.1953125 25.57421875 Z " fill="#FFFFFF" transform="translate(1638.375,1359.5625)"/>
<path d="M0 0 C1.30904297 -0.01740234 1.30904297 -0.01740234 2.64453125 -0.03515625 C13.8631753 0.01470439 24.12166675 3.60471797 32.5078125 11.19140625 C43.55988118 23.03290841 45.10962305 36.67713137 44.8125 52.1875 C44.27709301 64.50186066 39.64972625 74.81750879 30.625 83.1875 C21.5524676 90.65289809 12.20580772 92.72675804 0.6875 92.6875 C-0.71338867 92.71166992 -0.71338867 92.71166992 -2.14257812 92.73632812 C-13.36340986 92.74411496 -22.76873347 89.51401763 -31.5 82.375 C-41.50514216 71.73301462 -44.82875049 58.6444838 -44.65234375 44.3359375 C-43.91366942 29.97913902 -40.11235742 19.28557249 -29.5 9.375 C-20.71046418 2.07599736 -11.26216595 -0.1497186 0 0 Z M-18.5 24.375 C-24.74812715 33.40007255 -25.71360718 43.79943643 -24 54.49609375 C-22.15661875 62.88557318 -19.67874157 68.51931968 -12.375 73.25 C-6.49410394 76.70531247 -1.20326269 76.87468062 5.5 76.375 C12.3633422 74.39742683 18.13729022 70.22019435 21.89453125 64.10546875 C26.20162563 54.19762974 26.19315225 41.25965107 22.8125 31.0625 C19.97706416 24.55592092 15.52699216 20.96554852 9.5 17.375 C-0.89642775 14.10324634 -10.89901228 16.77401228 -18.5 24.375 Z " fill="#FFFFFF" transform="translate(2805.5,1359.625)"/>
<path d="M0 0 C0.88171875 -0.01611328 1.7634375 -0.03222656 2.671875 -0.04882812 C13.94718232 -0.05709448 24.1999261 3.49993314 32.6328125 11.12890625 C43.68488118 22.97040841 45.23462305 36.61463137 44.9375 52.125 C44.40209301 64.43936066 39.77472625 74.75500879 30.75 83.125 C18.5808073 93.13850714 4.73989013 93.41103273 -10.375 92.3125 C-20.27292748 90.66977674 -29.14826861 85.4819393 -35.51171875 77.69921875 C-44.75482925 63.99926252 -45.97613683 48.14813794 -43.0703125 32.20703125 C-40.51812192 21.58246259 -34.26062307 12.01850138 -25.203125 5.828125 C-17.0227099 1.03270925 -9.33159977 -0.03381014 0 0 Z M-18.375 24.3125 C-24.57505339 33.09590896 -25.58615444 43.92256551 -23.875 54.36328125 C-22.02845653 62.78813583 -19.5867003 68.4354721 -12.25 73.1875 C-5.89375764 76.92210154 0.67970411 77.24670668 7.87890625 75.88671875 C14.25880909 73.85164211 18.60430127 69.77570342 21.94921875 64.04296875 C26.30212003 54.10002582 26.33622534 41.25166543 22.9375 31 C20.10206416 24.49342092 15.65199216 20.90304852 9.625 17.3125 C-0.77142775 14.04074634 -10.77401228 16.71151228 -18.375 24.3125 Z " fill="#FFFFFF" transform="translate(1462.375,1359.6875)"/>
<path d="M0 0 C54.58928571 0 54.58928571 0 66 10 C76.03406955 22.81903579 77.91384194 37.13238084 77 53 C75.42751169 64.72556243 71.77433029 75.62432259 62.328125 83.37109375 C45.22348941 95.28072638 17.23822604 90 0 90 C0 60.3 0 30.6 0 0 Z M19 16 C19 35.14 19 54.28 19 74 C37.01209003 75.57554648 37.01209003 75.57554648 51.875 68.1875 C58.25566055 58.61650918 58.06926317 45.72044254 56.5390625 34.671875 C55.15526321 28.19243832 53.20154919 23.27741608 48 19 C39.42668007 14.28467404 28.0813839 16 19 16 Z " fill="#FFFFFF" transform="translate(2205,1361)"/>
<path d="M0 0 C54.80569556 0 54.80569556 0 65.1875 9.625 C75.34417867 20.34039577 77.37771778 34.54767119 77.21484375 48.75390625 C76.40051346 61.05769664 72.87056798 73.12943202 64 82 C47.11681343 95.80634416 17.92646625 90 0 90 C0 60.3 0 30.6 0 0 Z M19 16 C19 35.14 19 54.28 19 74 C37.01209003 75.57554648 37.01209003 75.57554648 51.875 68.1875 C58.39508946 58.40736581 58.19395202 44.89304046 56.25 33.625 C54.95024058 28.02603633 52.8052603 23.90841804 48.8125 19.6875 C39.67335278 14.20401167 29.44234011 16 19 16 Z " fill="#FFFFFF" transform="translate(684,1361)"/>
<path d="M0 0 C54.80569556 0 54.80569556 0 65.1875 9.625 C75.45034816 20.47256839 77.07437437 34.70395271 77 49 C76.19329566 61.66397763 73.04005977 73.73556953 63.33984375 82.5 C45.94508784 95.81352616 18.80935898 90 0 90 C0 60.3 0 30.6 0 0 Z M19 16 C19 35.14 19 54.28 19 74 C36.29564264 75.56208585 36.29564264 75.56208585 51.3125 68.8125 C58.07996015 57.53339974 58.06649688 44.4992191 55.75 31.87109375 C54.244319 26.10715865 51.6766895 21.74189657 46.5625 18.5625 C37.51748721 14.59538913 29.1542928 16 19 16 Z " fill="#FFFFFF" transform="translate(2674,1361)"/>
<path d="M0 0 C54.69527512 0 54.69527512 0 64.625 9.0625 C76.23119347 21.43889853 76.55843415 35.64736114 76.3125 51.66015625 C75.86920712 64.28107402 71.96020694 73.59976644 62.6875 82.25 C45.63416199 96.09640498 19.10808226 90 0 90 C0 60.3 0 30.6 0 0 Z M19 16 C19 35.14 19 54.28 19 74 C36.29564264 75.56208585 36.29564264 75.56208585 51.3125 68.8125 C57.92073252 57.79877913 58.10729637 44.25803427 55.78515625 31.84765625 C54.2002735 26.0994994 51.72015203 21.79133792 46.625 18.5625 C37.72542198 14.72647499 28.67482303 16 19 16 Z " fill="#FFFFFF" transform="translate(867,1361)"/>
<path d="M0 0 C22.77 0 45.54 0 69 0 C69 5.28 69 10.56 69 16 C52.83 16 36.66 16 20 16 C20 22.27 20 28.54 20 35 C34.85 35 49.7 35 65 35 C65 40.28 65 45.56 65 51 C50.15 51 35.3 51 20 51 C20 58.59 20 66.18 20 74 C36.5 74 53 74 70 74 C70 79.28 70 84.56 70 90 C46.9 90 23.8 90 0 90 C0 60.3 0 30.6 0 0 Z " fill="#FFFFFF" transform="translate(2120,1361)"/>
<path d="M0 0 C22.77 0 45.54 0 69 0 C69 5.28 69 10.56 69 16 C52.83 16 36.66 16 20 16 C20 22.27 20 28.54 20 35 C34.85 35 49.7 35 65 35 C65 40.28 65 45.56 65 51 C50.15 51 35.3 51 20 51 C20 58.59 20 66.18 20 74 C36.5 74 53 74 70 74 C70 79.28 70 84.56 70 90 C46.9 90 23.8 90 0 90 C0 60.3 0 30.6 0 0 Z " fill="#FFFFFF" transform="translate(388,1361)"/>
<path d="M0 0 C22.44 0 44.88 0 68 0 C68 5.28 68 10.56 68 16 C52.16 16 36.32 16 20 16 C20 22.27 20 28.54 20 35 C34.85 35 49.7 35 65 35 C65 40.28 65 45.56 65 51 C50.15 51 35.3 51 20 51 C20 58.59 20 66.18 20 74 C36.5 74 53 74 70 74 C70 79.28 70 84.56 70 90 C46.9 90 23.8 90 0 90 C0 60.3 0 30.6 0 0 Z " fill="#FFFFFF" transform="translate(2296,1361)"/>
<path d="M0 0 C1.30904297 -0.01740234 1.30904297 -0.01740234 2.64453125 -0.03515625 C12.2579985 0.00757027 20.88591124 2.21610762 28.08984375 8.8359375 C33.37668225 14.34252235 35.5 20.79655767 35.5 28.375 C28.9 28.375 22.3 28.375 15.5 28.375 C14.51 26.065 13.52 23.755 12.5 21.375 C10.48060136 18.8507517 9.65499404 18.42666468 6.5 17.375 C4.23236426 17.22851918 1.95967634 17.1540374 -0.3125 17.125 C-1.51519531 17.09921875 -2.71789062 17.0734375 -3.95703125 17.046875 C-7.8333158 17.40586938 -10.20941124 18.32817544 -13.5 20.375 C-14.91518518 22.70087842 -14.91518518 22.70087842 -14.5 25.375 C-11.08988414 29.45221854 -8.35129756 31.12929798 -3.23828125 32.4375 C-2.03623047 32.75976562 -0.83417969 33.08203125 0.40429688 33.4140625 C2.27698242 33.88972656 2.27698242 33.88972656 4.1875 34.375 C17.98310167 37.93422182 28.70214624 40.90517219 36.375 53.4375 C39.03217184 60.48616543 38.65670755 69.53509387 35.8125 76.4375 C31.87732353 83.8553762 25.23786332 88.60979348 17.48046875 91.5 C12.30177677 92.88379403 7.01077827 92.70398074 1.6875 92.6875 C0.65818359 92.70361328 -0.37113281 92.71972656 -1.43164062 92.73632812 C-12.64611961 92.74342141 -21.40350969 90.39148546 -29.5 82.375 C-34.69701838 75.92309182 -36.5 69.67993739 -36.5 61.375 C-30.56 60.715 -24.62 60.055 -18.5 59.375 C-17.654375 61.2725 -16.80875 63.17 -15.9375 65.125 C-12.99904805 71.14274019 -12.99904805 71.14274019 -7.75 74.890625 C-1.14676616 76.31215451 6.62545408 76.86740666 12.75 73.625 C16.05917973 71.05694319 16.05917973 71.05694319 17.5 67.375 C17.82548832 63.81836774 17.82548832 63.81836774 16.5 60.375 C9.19342164 55.92525915 1.10875576 54.23395876 -7.125 52.1953125 C-15.79372543 49.91739925 -25.2810822 46.86586538 -30.0625 38.6875 C-30.51753906 37.94113281 -30.97257813 37.19476562 -31.44140625 36.42578125 C-34.58714877 30.33163062 -34.60519166 23.07790851 -32.6640625 16.57421875 C-29.57103298 9.73426422 -25.27246502 5.27867922 -18.26049805 2.48168945 C-12.06803534 0.54236528 -6.47153477 -0.08603222 0 0 Z " fill="#FFFFFF" transform="translate(596.5,1359.625)"/>
<path d="M0 0 C22.44 0 44.88 0 68 0 C68 5.28 68 10.56 68 16 C51.83 16 35.66 16 19 16 C19 22.27 19 28.54 19 35 C34.18 35 49.36 35 65 35 C65 40.28 65 45.56 65 51 C49.82 51 34.64 51 19 51 C19 58.59 19 66.18 19 74 C35.83 74 52.66 74 70 74 C70 79.28 70 84.56 70 90 C46.9 90 23.8 90 0 90 C0 60.3 0 30.6 0 0 Z " fill="#FFFFFF" transform="translate(1155,1361)"/>
<path d="M0 0 C22.44 0 44.88 0 68 0 C68 5.28 68 10.56 68 16 C51.83 16 35.66 16 19 16 C19 22.27 19 28.54 19 35 C34.18 35 49.36 35 65 35 C65 40.28 65 45.56 65 51 C49.82 51 34.64 51 19 51 C19 58.59 19 66.18 19 74 C35.83 74 52.66 74 70 74 C70 79.28 70 84.56 70 90 C46.9 90 23.8 90 0 90 C0 60.3 0 30.6 0 0 Z " fill="#FFFFFF" transform="translate(958,1361)"/>
<path d="M0 0 C6.93 0 13.86 0 21 0 C22.09054687 2.66578125 23.18109375 5.3315625 24.3046875 8.078125 C24.87366257 9.46881699 24.87366257 9.46881699 25.45413208 10.88760376 C27.40223683 15.64923537 29.34975638 20.41110526 31.29638672 25.17333984 C35.1618142 34.62815549 39.03074135 44.08146015 42.91854858 53.52709961 C44.58790524 57.58339873 46.25476813 61.64072044 47.92144775 65.69812012 C48.72402795 67.64988901 49.52786195 69.60114279 50.33294678 71.55187988 C51.456871 74.27549672 52.57654856 77.0008228 53.6953125 79.7265625 C54.20025238 80.94537613 54.20025238 80.94537613 54.71539307 82.18881226 C57 87.77226764 57 87.77226764 57 90 C50.07 90 43.14 90 36 90 C33.08064633 83.68788396 30.44885094 77.53026917 28 71 C16.45 71 4.9 71 -7 71 C-9.31 77.27 -11.62 83.54 -14 90 C-20.93 90 -27.86 90 -35 90 C-33.09675478 83.65584926 -31.19184705 77.61883733 -28.72192383 71.52099609 C-28.40937149 70.73925018 -28.09681915 69.95750427 -27.77479553 69.15206909 C-26.75629255 66.6075322 -25.73173272 64.06548377 -24.70703125 61.5234375 C-23.99349288 59.74426173 -23.28033883 57.96493178 -22.56755066 56.18545532 C-20.70219769 51.53155936 -18.83167388 46.87975919 -16.96002197 42.22839355 C-15.04635895 37.46993676 -13.13765374 32.70949234 -11.22851562 27.94921875 C-7.49049361 18.63087197 -3.74654288 9.31492414 0 0 Z M10 24 C7.08041159 30.82098531 4.31037848 37.68513698 1.6875 44.625 C1.42114746 45.32367187 1.15479492 46.02234375 0.88037109 46.7421875 C-0.52047418 50.27362236 -0.52047418 50.27362236 -1 54 C6.59 54 14.18 54 22 54 C18.48090819 43.93376063 14.90099397 33.92509527 11 24 C10.67 24 10.34 24 10 24 Z " fill="#FFFFFF" transform="translate(801,1361)"/>
<path d="M0 0 C6.93 0 13.86 0 21 0 C29.51102792 20.44938531 38.00130224 40.90592039 46.3125 61.4375 C46.77984055 62.59190079 46.77984055 62.59190079 47.25662231 63.7696228 C48.68654988 67.30340968 50.11424047 70.83807316 51.53759766 74.37451172 C52.45311738 76.64420585 53.37383789 78.91181683 54.30224609 81.17626953 C54.67043457 82.07845215 55.03862305 82.98063477 55.41796875 83.91015625 C55.72887451 84.66562744 56.03978027 85.42109863 56.36010742 86.19946289 C57 88 57 88 57 90 C50.07 90 43.14 90 36 90 C33.36 83.73 30.72 77.46 28 71 C16.45 71 4.9 71 -7 71 C-9.31 77.27 -11.62 83.54 -14 90 C-20.93 90 -27.86 90 -35 90 C-31.62505236 78.75017452 -31.62505236 78.75017452 -29.79858398 74.21264648 C-29.39063095 73.19295273 -28.98267792 72.17325897 -28.56236267 71.12266541 C-28.12799393 70.04964676 -27.69362518 68.97662811 -27.24609375 67.87109375 C-26.78574234 66.72375259 -26.32539093 65.57641144 -25.85108948 64.39430237 C-24.38396641 60.74038191 -22.91088812 57.08889803 -21.4375 53.4375 C-20.47550731 51.04508434 -19.51391565 48.65250739 -18.55273438 46.25976562 C-16.65025466 41.52507938 -14.74560736 36.79127415 -12.83935547 32.05810547 C-8.54068013 21.37963681 -4.27062786 10.68970915 0 0 Z M10 24 C7.08041159 30.82098531 4.31037848 37.68513698 1.6875 44.625 C1.42114746 45.32367187 1.15479492 46.02234375 0.88037109 46.7421875 C-0.52047418 50.27362236 -0.52047418 50.27362236 -1 54 C6.59 54 14.18 54 22 54 C16.83452495 38.87448602 16.83452495 38.87448602 11 24 C10.67 24 10.34 24 10 24 Z " fill="#FFFFFF" transform="translate(3365,1361)"/>
<path d="M0 0 C0.83265381 0.00523682 1.66530762 0.01047363 2.52319336 0.01586914 C3.42231445 0.0190918 4.32143555 0.02231445 5.24780273 0.02563477 C6.66609375 0.03820313 6.66609375 0.03820313 8.11303711 0.05102539 C9.06243164 0.05553711 10.01182617 0.06004883 10.98999023 0.06469727 C13.34356776 0.07652429 15.69702188 0.09300514 18.05053711 0.11352539 C23.20546003 10.86976432 27.67552612 21.86027653 32.11303711 32.92602539 C33.23478324 35.71496629 34.35742907 38.50354377 35.48020935 41.29206848 C36.23479257 43.16625353 36.98899449 45.04059213 37.74281311 46.91508484 C40.15561055 52.91012154 42.59310482 58.89447113 45.05053711 64.87133789 C45.66118861 66.35984039 46.27178596 67.84836511 46.88232422 69.33691406 C47.74054734 71.42899569 48.60033291 73.5203515 49.46560669 75.60952759 C50.24980579 77.50349874 51.02731213 79.40023696 51.80444336 81.29711914 C52.45908569 82.88351196 52.45908569 82.88351196 53.12695312 84.50195312 C54.05053711 87.11352539 54.05053711 87.11352539 54.05053711 90.11352539 C47.12053711 90.11352539 40.19053711 90.11352539 33.05053711 90.11352539 C31.89553711 87.18477539 30.74053711 84.25602539 29.55053711 81.23852539 C29.18508789 80.31700684 28.81963867 79.39548828 28.44311523 78.44604492 C28.01675781 77.35718994 28.01675781 77.35718994 27.58178711 76.24633789 C27.14189453 75.130896 27.14189453 75.130896 26.69311523 73.99291992 C26.05053711 72.11352539 26.05053711 72.11352539 26.05053711 70.11352539 C14.17053711 70.11352539 2.29053711 70.11352539 -9.94946289 70.11352539 C-10.93946289 73.41352539 -11.92946289 76.71352539 -12.94946289 80.11352539 C-14.19620337 83.49098286 -15.57091366 86.78599278 -16.94946289 90.11352539 C-23.87946289 90.11352539 -30.80946289 90.11352539 -37.94946289 90.11352539 C-33.05002363 76.89294172 -27.90267852 63.77964153 -22.69946289 50.67602539 C-21.85061318 48.53599152 -21.00181789 46.39593607 -20.15307617 44.25585938 C-18.49872305 40.085588 -16.8432459 35.91576555 -15.18676758 31.74633789 C-13.55190954 27.63132099 -11.91950212 23.51534403 -10.2890625 19.39857483 C-9.13652187 16.49013343 -7.98046829 13.58309107 -6.82446289 10.67602539 C-6.4296875 9.67837158 -6.03491211 8.68071777 -5.62817383 7.65283203 C-5.27787109 6.7748999 -4.92756836 5.89696777 -4.56665039 4.99243164 C-4.27387207 4.25581299 -3.98109375 3.51919434 -3.67944336 2.76025391 C-2.67757852 0.50019425 -2.51999894 0.14675009 0 0 Z M7.05053711 24.11352539 C3.42053711 34.01352539 -0.20946289 43.91352539 -3.94946289 54.11352539 C3.64053711 54.11352539 11.23053711 54.11352539 19.05053711 54.11352539 C17.00927682 47.30932443 14.92387303 40.69850018 12.48803711 34.05102539 C12.18446289 33.19831055 11.88088867 32.3455957 11.56811523 31.46704102 C11.27227539 30.6581543 10.97643555 29.84926758 10.67163086 29.01586914 C10.40793701 28.28875732 10.14424316 27.56164551 9.87255859 26.8125 C9.16957843 24.91872857 9.16957843 24.91872857 7.05053711 24.11352539 Z " fill="#FFFFFF" transform="translate(3001.949462890625,1360.886474609375)"/>
<path d="M0 0 C6.93 0 13.86 0 21 0 C30.24351816 22.30214372 39.4766126 44.60865745 48.56057739 66.97637939 C49.31172539 68.82513063 50.06406496 70.67339817 50.81759644 72.5211792 C51.86498859 75.09083319 52.90780636 77.66229283 53.94921875 80.234375 C54.26078918 80.99680511 54.57235962 81.75923523 54.89337158 82.54476929 C57 87.770837 57 87.770837 57 90 C50.07 90 43.14 90 36 90 C33.36 83.73 30.72 77.46 28 71 C16.45 71 4.9 71 -7 71 C-9.31 77.27 -11.62 83.54 -14 90 C-20.93 90 -27.86 90 -35 90 C-31.62507101 78.7502367 -31.62507101 78.7502367 -30.01391602 74.75097656 C-29.65207718 73.8465683 -29.29023834 72.94216003 -28.91743469 72.01034546 C-28.53347031 71.06333771 -28.14950592 70.11632996 -27.75390625 69.140625 C-27.34613449 68.12473297 -26.93836273 67.10884094 -26.51823425 66.06216431 C-25.20369343 62.78980236 -23.88315263 59.5198995 -22.5625 56.25 C-21.6580985 54.00163782 -20.75412899 51.75310183 -19.85058594 49.50439453 C-18.06337394 45.0577802 -16.27407758 40.61201463 -14.48291016 36.16699219 C-11.48076418 28.71440859 -8.49641827 21.25475897 -5.5163269 13.79333496 C-4.31924297 10.79669222 -3.12050486 7.80071221 -1.921875 4.8046875 C-1.28765625 3.21914062 -0.6534375 1.63359375 0 0 Z M10 24 C7.08041159 30.82098531 4.31037848 37.68513698 1.6875 44.625 C1.42114746 45.32367187 1.15479492 46.02234375 0.88037109 46.7421875 C-0.52047418 50.27362236 -0.52047418 50.27362236 -1 54 C6.59 54 14.18 54 22 54 C16.83452495 38.87448602 16.83452495 38.87448602 11 24 C10.67 24 10.34 24 10 24 Z " fill="#FFFFFF" transform="translate(1947,1361)"/>
<path d="M0 0 C6.27 0 12.54 0 19 0 C19.01458252 1.77044678 19.02916504 3.54089355 19.04418945 5.36499023 C19.09604048 11.24441179 19.16137919 17.12360234 19.23571491 23.00277615 C19.2802562 26.5639204 19.31954678 30.12495454 19.34643555 33.6862793 C19.37765655 37.78983669 19.43243778 41.89279699 19.48828125 45.99609375 C19.49467117 47.26206894 19.5010611 48.52804413 19.50764465 49.8323822 C19.64445377 61.68270493 19.64445377 61.68270493 25.5 71.5 C31.02754955 74.81652973 36.73176852 74.45602213 43 74 C46.79145924 72.73618025 48.37033364 71.80336742 50.8125 68.6875 C52.93240829 63.88981282 53.12865894 59.00223731 53.20532227 53.81103516 C53.22526749 52.61024323 53.24521271 51.40945129 53.26576233 50.17227173 C53.28247482 48.89081268 53.29918732 47.60935364 53.31640625 46.2890625 C53.33700309 44.95241696 53.35800024 43.61577754 53.37937927 42.27914429 C53.43431826 38.77757753 53.48385056 35.27595475 53.53222656 31.77429199 C53.58264861 28.19452995 53.63822611 24.61484828 53.69335938 21.03515625 C53.80059582 14.02350588 53.90163898 7.01178044 54 0 C60.27 0 66.54 0 73 0 C73.06814042 8.26770445 73.12302426 16.53518565 73.15543652 24.80309677 C73.17100327 28.64341528 73.192074 32.48352949 73.22631836 36.32373047 C73.25923673 40.03905456 73.27692036 43.75418382 73.28463173 47.46964264 C73.29011765 48.87762768 73.30082777 50.28560369 73.31719017 51.69350433 C73.43783555 62.51819559 73.38822761 73.22285474 66.375 82 C58.95764323 89.55420838 50.38619124 91.13661837 40.20117188 91.234375 C39.08291016 91.23953125 37.96464844 91.2446875 36.8125 91.25 C35.71357422 91.270625 34.61464844 91.29125 33.48242188 91.3125 C22.99672528 91.36252121 14.70477872 89.40197082 7 82 C-1.12596491 72.59532995 -0.2888615 59.87664316 -0.1953125 48.14453125 C-0.19157238 46.74777939 -0.18873015 45.35102486 -0.18673706 43.95426941 C-0.17917908 40.31619751 -0.15960016 36.6782908 -0.1373291 33.0402832 C-0.11669966 29.31268547 -0.10769916 25.5850605 -0.09765625 21.85742188 C-0.076345 14.57153133 -0.04122906 7.28581005 0 0 Z " fill="#FFFFFF" transform="translate(86,1361)"/>
<path d="M0 0 C54.81679389 0 54.81679389 0 62.58203125 7.53515625 C69.36744424 14.78283582 70.59578687 21.70840755 70.34375 31.52734375 C69.60007138 39.04018796 66.93244375 45.3962259 61.16699219 50.41674805 C52.65457935 56.6361033 42.9294614 56.51057704 32.8125 56.25 C28.254375 56.1675 23.69625 56.085 19 56 C19 67.22 19 78.44 19 90 C12.73 90 6.46 90 0 90 C0 60.3 0 30.6 0 0 Z M19 16 C19 23.92 19 31.84 19 40 C24.259375 40.0928125 24.259375 40.0928125 29.625 40.1875 C30.71893066 40.21481201 31.81286133 40.24212402 32.93994141 40.27026367 C38.37584839 40.31663492 42.34098804 40.14634574 47 37 C49.89870853 33.61817339 50.60887278 30.46223753 50.40625 25.99609375 C49.64483998 22.2549349 47.81241555 20.4608636 45 18 C39.05985608 16.08882326 33.70151087 15.74474522 27.5 15.875 C24.695 15.91625 21.89 15.9575 19 16 Z " fill="#FFFFFF" transform="translate(2899,1361)"/>
<path d="M0 0 C8.12997116 5.79575432 11.31099571 11.95933807 13.51953125 21.45703125 C10.75085128 22.15443929 7.98016263 22.84025978 5.20703125 23.51953125 C4.42134766 23.71869141 3.63566406 23.91785156 2.82617188 24.12304688 C2.06884766 24.30673828 1.31152344 24.49042969 0.53125 24.6796875 C-0.16524658 24.85250244 -0.86174316 25.02531738 -1.5793457 25.20336914 C-3.48046875 25.45703125 -3.48046875 25.45703125 -6.48046875 24.45703125 C-7.4375 22.75 -7.4375 22.75 -8.29296875 20.64453125 C-10.2365741 16.48923706 -12.34874561 14.60897038 -16.48046875 12.45703125 C-22.29895797 10.706754 -28.14402163 10.53215671 -33.73046875 13.08203125 C-39.13961334 16.17911602 -42.1736426 19.99044281 -44.29296875 25.76953125 C-47.17887581 36.59168273 -47.09964119 50.84268161 -41.66796875 60.76953125 C-37.77768257 65.5490257 -33.68318965 68.92463283 -27.4453125 69.71484375 C-21.70389765 70.01028534 -17.06782198 69.04277897 -12.48046875 65.45703125 C-8.98912395 61.29222908 -6.91903782 56.68819151 -5.48046875 51.45703125 C1.11857854 52.98488949 7.39342334 54.53320702 13.51953125 57.45703125 C11.18958366 67.24689874 7.30197127 75.4280201 -1.2578125 81.171875 C-12.43699968 87.63576355 -25.37728546 88.29002517 -37.93359375 85.76171875 C-47.89332334 82.45108238 -56.4596978 75.38377995 -61.734375 66.296875 C-68.51139611 52.11764632 -68.48704169 34.19525602 -63.48046875 19.45703125 C-62.10499587 16.20728762 -60.4855999 13.35701432 -58.48046875 10.45703125 C-58.02285156 9.76996094 -57.56523438 9.08289062 -57.09375 8.375 C-44.55716331 -8.140453 -16.85721536 -10.48598436 0 0 Z " fill="#FFFFFF" transform="translate(1302.48046875,1365.54296875)"/>
<path d="M0 0 C6.95114404 4.85930443 12.10078426 10.645929 14.83984375 18.7109375 C14.83984375 20.0309375 14.83984375 21.3509375 14.83984375 22.7109375 C12.23672383 23.38193734 9.63248977 24.04789088 7.02734375 24.7109375 C6.28935547 24.90171875 5.55136719 25.0925 4.79101562 25.2890625 C1.73449034 26.06356664 -0.99389103 26.7109375 -4.16015625 26.7109375 C-4.50626953 25.91429687 -4.50626953 25.91429687 -4.859375 25.1015625 C-7.42940874 19.5348491 -9.96718138 16.48481243 -15.41015625 13.4609375 C-22.75469575 11.45788127 -28.35516397 12.56333711 -34.9921875 16.2265625 C-40.10484393 19.72712005 -42.01424215 24.83019811 -43.16015625 30.7109375 C-43.46346472 34.33993408 -43.48500393 37.94584033 -43.47265625 41.5859375 C-43.48876953 42.52824219 -43.50488281 43.47054688 -43.52148438 44.44140625 C-43.52661181 51.85567245 -42.31362726 58.12181915 -38.47265625 64.5234375 C-33.89270689 68.85582203 -29.37462862 70.93839474 -23.03515625 71.1484375 C-17.16859605 70.86993311 -13.71607392 69.26685517 -9.53515625 65.0859375 C-6.61823475 61.34774684 -4.93086665 57.07321742 -3.16015625 52.7109375 C-0.17744833 53.48965432 2.8002487 54.28605385 5.77734375 55.0859375 C6.62748047 55.30765625 7.47761719 55.529375 8.35351562 55.7578125 C9.5668457 56.08652344 9.5668457 56.08652344 10.8046875 56.421875 C11.55355225 56.62087402 12.30241699 56.81987305 13.07397461 57.02490234 C14.83984375 57.7109375 14.83984375 57.7109375 15.83984375 59.7109375 C13.15874314 69.449188 7.77462022 77.93426156 -0.82421875 83.40625 C-11.56559043 88.95120588 -24.79262758 89.56931844 -36.5546875 86.95703125 C-38.91180324 86.03373707 -41.00246981 85.0290221 -43.16015625 83.7109375 C-44.25328125 83.0509375 -45.34640625 82.3909375 -46.47265625 81.7109375 C-47.35953125 81.0509375 -48.24640625 80.3909375 -49.16015625 79.7109375 C-49.98515625 79.1540625 -50.81015625 78.5971875 -51.66015625 78.0234375 C-60.23573737 70.09102497 -63.92306532 59.66941894 -64.54296875 48.21875 C-65.02585829 32.24665351 -63.42398909 18.66822424 -52.125 6.5234375 C-39.3422319 -5.74080561 -15.55029391 -9.27956056 0 0 Z " fill="#FFFFFF" transform="translate(1891.16015625,1364.2890625)"/>
<path d="M0 0 C6.93 0 13.86 0 21 0 C21.79434448 2.30000977 21.79434448 2.30000977 22.60473633 4.64648438 C24.57731098 10.35713684 26.55126819 16.0673106 28.52563477 21.77734375 C29.3785489 24.24466204 30.2310924 26.71210849 31.08325195 29.1796875 C32.31102699 32.73471622 33.54015187 36.28927581 34.76953125 39.84375 C35.14777542 40.93989624 35.52601959 42.03604248 35.91572571 43.16540527 C37.47173553 47.66076233 39.03906351 52.13886445 40.7644043 56.57226562 C42 60 42 60 42 63 C42.66 63 43.32 63 44 63 C44.26643311 61.71391846 44.53286621 60.42783691 44.80737305 59.1027832 C45.92747232 54.07328658 47.44308812 49.23678098 49.08203125 44.35546875 C49.5261158 43.01890984 49.5261158 43.01890984 49.97917175 41.65534973 C50.60312579 39.78145849 51.22932376 37.90831305 51.85766602 36.03588867 C52.80570967 33.20775639 53.74415421 30.37656873 54.68164062 27.54492188 C57.79521909 18.19493181 61.03937595 9.03022283 65 0 C71.6 0 78.2 0 85 0 C84.13282064 4.33589678 82.93606145 8.27093338 81.4375 12.40234375 C81.04227646 13.50419006 81.04227646 13.50419006 80.6390686 14.6282959 C79.76315944 17.06607673 78.88176882 19.50183309 78 21.9375 C77.38451809 23.64523312 76.76912266 25.35299741 76.15380859 27.06079102 C68.56385322 48.08735171 60.77992521 69.04317968 53 90 C46.07 90 39.14 90 32 90 C26.04511373 74.94440478 20.50605243 59.74881705 15.0177002 44.51861572 C13.83820586 41.24688178 12.65633186 37.97600779 11.47460938 34.70507812 C7.20523923 22.88672362 7.20523923 22.88672362 5.12466431 17.09939575 C4.36661937 15.01034461 3.59696341 12.9254748 2.8164978 10.84469604 C2.44932648 9.86203766 2.08215515 8.87937927 1.70385742 7.86694336 C1.37536301 6.99927841 1.04686859 6.13161346 0.7084198 5.23765564 C0 3 0 3 0 0 Z " fill="#FFFFFF" transform="translate(295,1361)"/>
<path d="M0 0 C20.79 0 41.58 0 63 0 C63 5.28 63 10.56 63 16 C48.81 16 34.62 16 20 16 C20 22.6 20 29.2 20 36 C32.21 36 44.42 36 57 36 C57 41.28 57 46.56 57 52 C44.79 52 32.58 52 20 52 C20 64.54 20 77.08 20 90 C13.4 90 6.8 90 0 90 C0 60.3 0 30.6 0 0 Z " fill="#FFFFFF" transform="translate(2043,1361)"/>
<path d="M0 0 C24.09 0 48.18 0 73 0 C73 5.28 73 10.56 73 16 C64.09 16 55.18 16 46 16 C46 40.42 46 64.84 46 90 C39.73 90 33.46 90 27 90 C27 65.58 27 41.16 27 16 C18.09 16 9.18 16 0 16 C0 10.72 0 5.44 0 0 Z " fill="#FFFFFF" transform="translate(1071,1361)"/>
<path d="M0 0 C6.27 0 12.54 0 19 0 C19 24.09 19 48.18 19 73 C34.18 73 49.36 73 65 73 C65 78.28 65 83.56 65 89 C43.55 89 22.1 89 0 89 C0 59.63 0 30.26 0 0 Z " fill="#FFFFFF" transform="translate(2564,1362)"/>
<path d="M0 0 C6.27 0 12.54 0 19 0 C19 24.09 19 48.18 19 73 C34.18 73 49.36 73 65 73 C65 78.28 65 83.56 65 89 C43.55 89 22.1 89 0 89 C0 59.63 0 30.26 0 0 Z " fill="#FFFFFF" transform="translate(1521,1362)"/>
<path d="M0 0 C6.6 0 13.2 0 20 0 C20 29.7 20 59.4 20 90 C13.4 90 6.8 90 0 90 C0 60.3 0 30.6 0 0 Z " fill="#FFFFFF" transform="translate(268,1361)"/>
<path d="M0 0 C6.27 0 12.54 0 19 0 C19 29.7 19 59.4 19 90 C12.73 90 6.46 90 0 90 C0 60.3 0 30.6 0 0 Z " fill="#FFFFFF" transform="translate(1794,1361)"/>
<path d="M0 0 C6.27 0 12.54 0 19 0 C19 29.7 19 59.4 19 90 C12.73 90 6.46 90 0 90 C0 60.3 0 30.6 0 0 Z " fill="#FFFFFF" transform="translate(648,1361)"/>
<path d="M0 0 C6.6 0 13.2 0 20 0 C17.98065924 4.03868153 16.10703213 6.02959241 12.90234375 9.05078125 C10.94325935 10.9524595 10.94325935 10.9524595 9.44140625 13.23046875 C7.74919295 15.61475931 6.3968995 17.30883033 4 19 C-0.41400748 19.66753454 -4.57300768 19.47931345 -9 19 C-8.25612721 17.14336668 -7.50456252 15.28981462 -6.75 13.4375 C-6.33234375 12.40496094 -5.9146875 11.37242188 -5.484375 10.30859375 C-3.89114971 6.75737842 -1.93108959 3.37940677 0 0 Z " fill="#FFFFFF" transform="translate(3373,1338)"/>
<path d="M0 0 C6.93 0 13.86 0 21 0 C7.25521724 18.32637701 7.25521724 18.32637701 0.62109375 19.69921875 C-2.33425013 19.68875118 -5.09045979 19.50269543 -8 19 C-5.99712886 12.25862885 -3.24984652 6.23619197 0 0 Z " fill="#FFFFFF" transform="translate(1635,1338)"/>
</svg>
