<?xml version="1.0" encoding="UTF-8"?>
<svg id="Camada_1" data-name="Camada 1" xmlns="http://www.w3.org/2000/svg" viewBox="0 0 1645.53 663.61">
  <defs>
    <style>
      .cls-1, .cls-2 {
        fill: #f9f9f9;
      }

      .cls-3 {
        fill: #ffd100;
      }

      .cls-3, .cls-2 {
        fill-rule: evenodd;
      }
    </style>
  </defs>
  <polygon class="cls-2" points="796.46 242.97 796.46 535.88 889.09 535.88 889.09 320.4 1045.21 320.4 1045.21 242.97 796.46 242.97"/>
  <path class="cls-2" d="M343.25,44.46v283.46c0,83.7-26.74,138.56-102,138.56s-101.98-54.86-101.98-138.56V44.46H40.79v313.7c0,131.51,74.54,185.7,200.46,185.7s200.45-54.19,200.45-185.7V121.82h113.81v413.59h98.48V121.82h391.84V44.46H343.25Z"/>
  <path class="cls-1" d="M33.87,576.43h8.66v22.73c0,3.61.1,5.95.32,7.02.37,1.72,1.25,3.09,2.65,4.13,1.39,1.04,3.3,1.56,5.71,1.56s4.31-.49,5.55-1.48c1.25-.98,2-2.19,2.25-3.62.25-1.43.38-3.81.38-7.13v-23.22h8.65v22.05c0,5.04-.23,8.6-.7,10.68-.46,2.08-1.33,3.83-2.59,5.27-1.26,1.44-2.93,2.57-5.04,3.43-2.11.84-4.85,1.27-8.24,1.27-4.1,0-7.2-.46-9.31-1.39-2.12-.92-3.79-2.13-5.02-3.61-1.23-1.48-2.03-3.03-2.42-4.65-.57-2.41-.85-5.96-.85-10.65v-22.39Z"/>
  <polygon class="cls-1" points="77.26 618.4 77.26 576.43 85.68 576.43 103.22 604.46 103.22 576.43 111.26 576.43 111.26 618.4 102.57 618.4 85.3 591.03 85.3 618.4 77.26 618.4"/>
  <rect class="cls-1" x="120.14" y="576.43" width="8.65" height="41.97"/>
  <polygon class="cls-1" points="147.97 618.4 132.65 576.43 142.04 576.43 152.89 607.49 163.38 576.43 172.56 576.43 157.21 618.4 147.97 618.4"/>
  <polygon class="cls-1" points="176.98 618.4 176.98 576.43 208.75 576.43 208.75 583.53 185.63 583.53 185.63 592.84 207.15 592.84 207.15 599.91 185.63 599.91 185.63 611.33 209.57 611.33 209.57 618.4 176.98 618.4"/>
  <path class="cls-1" d="M216.94,618.4v-41.97h18.22c4.58,0,7.91.38,9.99,1.13,2.07.75,3.74,2.1,4.98,4.03,1.25,1.92,1.87,4.13,1.87,6.61,0,3.15-.95,5.75-2.84,7.8-1.9,2.06-4.72,3.35-8.48,3.88,1.87,1.07,3.42,2.25,4.64,3.52,1.21,1.28,2.86,3.55,4.92,6.81l5.23,8.19h-10.35l-6.25-9.13c-2.22-3.26-3.74-5.32-4.56-6.17-.82-.85-1.68-1.43-2.6-1.75-.92-.31-2.37-.47-4.36-.47h-1.75v17.52h-8.66ZM225.6,594.18h6.4c4.16,0,6.75-.17,7.78-.52,1.03-.34,1.84-.93,2.42-1.77.59-.83.88-1.89.88-3.15,0-1.41-.39-2.56-1.15-3.42-.77-.87-1.86-1.42-3.26-1.64-.7-.1-2.81-.15-6.32-.15h-6.75v10.65Z"/>
  <path class="cls-1" d="M257.96,604.74l8.42-.8c.51,2.77,1.54,4.8,3.09,6.1,1.55,1.3,3.64,1.94,6.27,1.94,2.79,0,4.89-.58,6.3-1.73,1.42-1.16,2.12-2.51,2.12-4.06,0-.99-.3-1.84-.9-2.53-.59-.7-1.63-1.3-3.11-1.81-1.01-.35-3.32-.95-6.93-1.84-4.64-1.12-7.9-2.51-9.77-4.15-2.63-2.31-3.94-5.12-3.94-8.45,0-2.13.62-4.13,1.86-6,1.24-1.86,3.02-3.28,5.35-4.25,2.33-.97,5.14-1.46,8.44-1.46,5.38,0,9.43,1.15,12.15,3.46,2.72,2.31,4.15,5.39,4.28,9.25l-8.65.37c-.37-2.16-1.17-3.71-2.39-4.65-1.22-.94-3.05-1.42-5.48-1.42s-4.48.51-5.9,1.52c-.92.65-1.37,1.52-1.37,2.61,0,.99.42,1.84,1.28,2.55,1.09.9,3.74,1.83,7.95,2.8,4.21.97,7.32,1.98,9.34,3.02,2.02,1.05,3.6,2.46,4.74,4.27,1.14,1.8,1.71,4.03,1.71,6.68,0,2.41-.68,4.65-2.05,6.75-1.36,2.1-3.29,3.66-5.79,4.68-2.5,1.03-5.6,1.54-9.32,1.54-5.42,0-9.58-1.23-12.48-3.68-2.9-2.45-4.64-6.03-5.2-10.72"/>
  <rect class="cls-1" x="299.83" y="576.43" width="8.65" height="41.97"/>
  <path class="cls-1" d="M316.69,576.43h15.82c3.56,0,6.29.27,8.15.8,2.52.73,4.67,2.02,6.46,3.87,1.79,1.85,3.16,4.12,4.1,6.8.94,2.68,1.4,5.99,1.4,9.91,0,3.46-.44,6.44-1.32,8.94-1.07,3.06-2.6,5.53-4.59,7.42-1.5,1.43-3.53,2.55-6.08,3.35-1.91.59-4.47.88-7.66.88h-16.28v-41.97ZM325.35,583.53v27.8h6.46c2.42,0,4.17-.14,5.23-.4,1.4-.34,2.57-.92,3.49-1.74.93-.82,1.68-2.18,2.27-4.06.59-1.87.88-4.44.88-7.68s-.29-5.74-.88-7.47c-.58-1.73-1.4-3.1-2.45-4.07-1.05-.97-2.39-1.63-4.01-1.98-1.21-.26-3.58-.4-7.11-.4h-3.89Z"/>
  <path class="cls-1" d="M398.61,618.4h-9.41l-3.74-9.53h-17.13l-3.54,9.53h-9.18l16.69-41.97h9.15l17.16,41.97ZM382.68,601.79l-5.9-15.57-5.79,15.57h11.69Z"/>
  <path class="cls-1" d="M403.17,576.43h15.82c3.56,0,6.29.27,8.15.8,2.52.73,4.67,2.02,6.46,3.87,1.79,1.85,3.16,4.12,4.1,6.8.94,2.68,1.4,5.99,1.4,9.91,0,3.46-.44,6.44-1.32,8.94-1.07,3.06-2.6,5.53-4.59,7.42-1.5,1.43-3.53,2.55-6.08,3.35-1.91.59-4.47.88-7.66.88h-16.28v-41.97ZM411.82,583.53v27.8h6.46c2.42,0,4.16-.14,5.23-.4,1.4-.34,2.57-.92,3.49-1.74.93-.82,1.68-2.18,2.27-4.06.59-1.87.88-4.44.88-7.68s-.29-5.74-.88-7.47c-.58-1.73-1.4-3.1-2.45-4.07-1.05-.97-2.39-1.63-4.01-1.98-1.21-.26-3.58-.4-7.11-.4h-3.89Z"/>
  <polygon class="cls-1" points="446.44 618.4 446.44 576.43 478.22 576.43 478.22 583.53 455.1 583.53 455.1 592.84 476.61 592.84 476.61 599.91 455.1 599.91 455.1 611.33 479.04 611.33 479.04 618.4 446.44 618.4"/>
  <polygon class="cls-1" points="512.66 618.4 512.66 583.53 499.94 583.53 499.94 576.43 534 576.43 534 583.53 521.31 583.53 521.31 618.4 512.66 618.4"/>
  <polygon class="cls-1" points="539.59 618.4 539.59 576.43 571.37 576.43 571.37 583.53 548.24 583.53 548.24 592.84 569.76 592.84 569.76 599.91 548.24 599.91 548.24 611.33 572.19 611.33 572.19 618.4 539.59 618.4"/>
  <path class="cls-1" d="M606.95,602.97l8.39,2.61c-1.28,4.58-3.42,7.99-6.42,10.2-2.99,2.23-6.79,3.34-11.39,3.34-5.69,0-10.37-1.9-14.03-5.71-3.67-3.81-5.5-9.01-5.5-15.62,0-6.99,1.84-12.41,5.53-16.27,3.68-3.87,8.53-5.8,14.53-5.8,5.25,0,9.5,1.51,12.78,4.55,1.95,1.8,3.41,4.37,4.39,7.73l-8.57,2c-.5-2.17-1.56-3.89-3.17-5.16-1.61-1.26-3.56-1.88-5.86-1.88-3.17,0-5.75,1.12-7.73,3.35-1.98,2.23-2.97,5.84-2.97,10.85,0,5.31.98,9.09,2.93,11.34,1.95,2.25,4.48,3.38,7.6,3.38,2.3,0,4.28-.72,5.93-2.15,1.66-1.43,2.85-3.68,3.57-6.76"/>
  <polygon class="cls-1" points="622.85 618.4 622.85 576.43 631.27 576.43 648.81 604.46 648.81 576.43 656.85 576.43 656.85 618.4 648.17 618.4 630.89 591.03 630.89 618.4 622.85 618.4"/>
  <path class="cls-1" d="M664.25,597.68c0-4.28.65-7.86,1.96-10.77.98-2.14,2.31-4.06,3.99-5.75,1.68-1.7,3.53-2.96,5.54-3.78,2.67-1.11,5.75-1.66,9.24-1.66,6.31,0,11.37,1.91,15.16,5.76,3.79,3.83,5.69,9.17,5.69,16s-1.88,12.08-5.64,15.91c-3.76,3.82-8.79,5.74-15.09,5.74s-11.44-1.9-15.2-5.71c-3.76-3.81-5.64-9.05-5.64-15.73M673.16,597.39c0,4.75,1.12,8.35,3.36,10.8,2.24,2.45,5.08,3.68,8.54,3.68s6.28-1.22,8.49-3.65c2.22-2.43,3.32-6.09,3.32-10.96s-1.08-8.4-3.23-10.76c-2.15-2.37-5.02-3.55-8.58-3.55s-6.44,1.2-8.62,3.59c-2.18,2.4-3.28,6.01-3.28,10.84"/>
  <polygon class="cls-1" points="712.81 618.4 712.81 576.77 721.46 576.77 721.46 611.33 742.98 611.33 742.98 618.4 712.81 618.4"/>
  <path class="cls-1" d="M747.4,597.68c0-4.28.65-7.86,1.96-10.77.97-2.14,2.31-4.06,3.99-5.76,1.69-1.7,3.54-2.96,5.54-3.78,2.67-1.11,5.75-1.66,9.24-1.66,6.31,0,11.36,1.91,15.16,5.75,3.79,3.83,5.68,9.17,5.68,16s-1.88,12.08-5.64,15.91c-3.76,3.82-8.79,5.74-15.09,5.74s-11.44-1.9-15.2-5.71c-3.76-3.81-5.64-9.05-5.64-15.73M756.31,597.39c0,4.75,1.12,8.35,3.36,10.8,2.24,2.45,5.08,3.68,8.54,3.68s6.28-1.22,8.49-3.65c2.21-2.43,3.32-6.09,3.32-10.96s-1.08-8.4-3.23-10.76c-2.15-2.37-5.02-3.55-8.58-3.55s-6.44,1.2-8.62,3.59c-2.18,2.4-3.28,6.01-3.28,10.84M762.86,574.02l4.03-8.56h9.21l-8.04,8.56h-5.2Z"/>
  <path class="cls-1" d="M815.66,602.97v-7.07h18.65v16.72c-1.81,1.71-4.44,3.23-7.88,4.54-3.44,1.31-6.92,1.96-10.45,1.96-4.49,0-8.39-.92-11.73-2.76-3.33-1.84-5.84-4.48-7.51-7.9-1.67-3.42-2.51-7.15-2.51-11.18,0-4.37.93-8.25,2.81-11.65,1.87-3.4,4.6-6,8.22-7.81,2.75-1.4,6.17-2.09,10.26-2.09,5.32,0,9.48,1.09,12.47,3.28,2.99,2.18,4.91,5.21,5.77,9.06l-8.6,1.57c-.61-2.06-1.74-3.68-3.41-4.88-1.66-1.19-3.75-1.79-6.24-1.79-3.78,0-6.78,1.17-9.02,3.52-2.24,2.34-3.35,5.83-3.35,10.45,0,4.99,1.13,8.72,3.39,11.21,2.26,2.49,5.22,3.74,8.88,3.74,1.81,0,3.63-.35,5.45-1.05,1.82-.7,3.39-1.54,4.69-2.53v-5.33h-9.91Z"/>
  <rect class="cls-1" x="842.03" y="576.43" width="8.65" height="41.97"/>
  <path class="cls-1" d="M886.36,602.97l8.39,2.61c-1.29,4.58-3.42,7.99-6.42,10.2-2.99,2.23-6.79,3.34-11.39,3.34-5.69,0-10.36-1.9-14.03-5.71-3.67-3.81-5.5-9.01-5.5-15.62,0-6.99,1.84-12.41,5.53-16.27,3.68-3.87,8.53-5.8,14.53-5.8,5.25,0,9.5,1.51,12.78,4.55,1.95,1.8,3.41,4.37,4.39,7.73l-8.57,2c-.51-2.17-1.56-3.89-3.17-5.16-1.61-1.26-3.56-1.88-5.86-1.88-3.17,0-5.75,1.12-7.73,3.35-1.98,2.23-2.97,5.84-2.97,10.85,0,5.31.98,9.09,2.93,11.34,1.95,2.25,4.48,3.38,7.6,3.38,2.3,0,4.28-.72,5.93-2.15,1.66-1.43,2.85-3.68,3.57-6.76"/>
  <path class="cls-1" d="M940.82,618.4h-9.41l-3.74-9.53h-17.14l-3.54,9.53h-9.18l16.69-41.97h9.15l17.16,41.97ZM924.88,601.79l-5.9-15.57-5.79,15.57h11.7Z"/>
  <polygon class="cls-1" points="959.87 618.4 959.87 576.43 989.25 576.43 989.25 583.53 968.52 583.53 968.52 593.46 986.42 593.46 986.42 600.56 968.52 600.56 968.52 618.4 959.87 618.4"/>
  <polygon class="cls-1" points="996.39 618.4 996.39 576.43 1028.17 576.43 1028.17 583.53 1005.04 583.53 1005.04 592.84 1026.56 592.84 1026.56 599.91 1005.04 599.91 1005.04 611.33 1028.99 611.33 1028.99 618.4 996.39 618.4"/>
  <path class="cls-1" d="M1036.29,576.43h15.82c3.56,0,6.29.27,8.15.8,2.51.73,4.67,2.02,6.46,3.87,1.79,1.85,3.16,4.12,4.09,6.8.94,2.68,1.41,5.99,1.41,9.91,0,3.46-.44,6.44-1.32,8.94-1.07,3.06-2.6,5.53-4.59,7.42-1.5,1.43-3.53,2.55-6.08,3.35-1.91.59-4.46.88-7.66.88h-16.28v-41.97ZM1044.95,583.53v27.8h6.46c2.42,0,4.16-.14,5.23-.4,1.4-.34,2.57-.92,3.49-1.74.93-.82,1.68-2.18,2.27-4.06.59-1.87.88-4.44.88-7.68s-.29-5.74-.88-7.47c-.58-1.73-1.4-3.1-2.45-4.07-1.05-.97-2.39-1.63-4.01-1.98-1.21-.26-3.58-.4-7.11-.4h-3.89Z"/>
  <polygon class="cls-1" points="1079.57 618.4 1079.57 576.43 1111.34 576.43 1111.34 583.53 1088.22 583.53 1088.22 592.84 1109.74 592.84 1109.74 599.91 1088.22 599.91 1088.22 611.33 1112.16 611.33 1112.16 618.4 1079.57 618.4"/>
  <path class="cls-1" d="M1119.53,618.4v-41.97h18.22c4.58,0,7.91.38,9.99,1.13,2.07.75,3.73,2.1,4.99,4.03,1.24,1.92,1.87,4.13,1.87,6.61,0,3.15-.95,5.75-2.84,7.8-1.89,2.06-4.72,3.35-8.48,3.88,1.87,1.07,3.42,2.25,4.64,3.52,1.21,1.28,2.86,3.55,4.92,6.81l5.23,8.19h-10.35l-6.25-9.13c-2.22-3.26-3.74-5.32-4.56-6.17-.82-.85-1.69-1.43-2.6-1.75-.91-.31-2.37-.47-4.36-.47h-1.75v17.52h-8.66ZM1128.18,594.18h6.4c4.16,0,6.75-.17,7.78-.52,1.03-.34,1.84-.93,2.42-1.77.59-.83.87-1.89.87-3.15,0-1.41-.38-2.56-1.15-3.42-.77-.87-1.86-1.42-3.26-1.64-.7-.1-2.81-.15-6.32-.15h-6.75v10.65Z"/>
  <path class="cls-1" d="M1201.38,618.4h-9.41l-3.74-9.53h-17.13l-3.54,9.53h-9.18l16.69-41.97h9.15l17.16,41.97ZM1185.45,601.79l-5.9-15.57-5.79,15.57h11.69Z"/>
  <polygon class="cls-1" points="1206.21 618.4 1206.21 576.77 1214.87 576.77 1214.87 611.33 1236.38 611.33 1236.38 618.4 1206.21 618.4"/>
  <path class="cls-1" d="M1258.08,576.43h15.82c3.57,0,6.29.27,8.15.8,2.52.73,4.67,2.02,6.46,3.87,1.79,1.85,3.16,4.12,4.1,6.8.94,2.68,1.4,5.99,1.4,9.91,0,3.46-.44,6.44-1.31,8.94-1.07,3.06-2.6,5.53-4.59,7.42-1.5,1.43-3.53,2.55-6.08,3.35-1.91.59-4.47.88-7.66.88h-16.28v-41.97ZM1266.73,583.53v27.8h6.46c2.42,0,4.17-.14,5.23-.4,1.4-.34,2.57-.92,3.5-1.74.93-.82,1.68-2.18,2.27-4.06.59-1.87.88-4.44.88-7.68s-.29-5.74-.88-7.47c-.58-1.73-1.4-3.1-2.45-4.07-1.05-.97-2.39-1.63-4.01-1.98-1.2-.26-3.57-.4-7.1-.4h-3.89Z"/>
  <path class="cls-1" d="M1299.6,597.68c0-4.28.65-7.86,1.96-10.77.98-2.14,2.31-4.06,4-5.75,1.68-1.7,3.53-2.96,5.54-3.78,2.67-1.11,5.75-1.66,9.24-1.66,6.31,0,11.36,1.91,15.16,5.76,3.79,3.83,5.69,9.17,5.69,16s-1.88,12.08-5.64,15.91c-3.76,3.82-8.79,5.74-15.09,5.74s-11.44-1.9-15.2-5.71c-3.76-3.81-5.64-9.05-5.64-15.73M1308.51,597.39c0,4.75,1.12,8.35,3.36,10.8,2.24,2.45,5.08,3.68,8.54,3.68s6.28-1.22,8.49-3.65c2.21-2.43,3.32-6.09,3.32-10.96s-1.08-8.4-3.23-10.76c-2.15-2.37-5.02-3.55-8.58-3.55s-6.45,1.2-8.63,3.59c-2.18,2.4-3.27,6.01-3.27,10.84"/>
  <path class="cls-1" d="M1364.56,618.4v-41.97h13.88c5.26,0,8.69.21,10.29.63,2.45.63,4.51,2,6.17,4.11,1.66,2.11,2.49,4.83,2.49,8.17,0,2.58-.48,4.74-1.43,6.5-.95,1.75-2.17,3.14-3.64,4.14-1.47,1-2.97,1.67-4.49,1.99-2.07.4-5.06.6-8.98.6h-5.64v15.83h-8.65ZM1373.21,583.53v11.91h4.74c3.41,0,5.69-.22,6.84-.66,1.15-.44,2.05-1.13,2.71-2.06.65-.94.98-2.03.98-3.27,0-1.52-.46-2.79-1.37-3.78-.92-.99-2.08-1.61-3.48-1.86-1.03-.19-3.11-.29-6.23-.29h-4.18Z"/>
  <path class="cls-1" d="M1438.7,618.4h-9.41l-3.74-9.53h-17.13l-3.54,9.53h-9.18l16.69-41.97h9.15l17.16,41.97ZM1422.77,601.79l-5.9-15.57-5.79,15.57h11.69Z"/>
  <path class="cls-1" d="M1443.32,618.4v-41.97h18.22c4.58,0,7.91.38,9.99,1.13,2.07.75,3.73,2.1,4.99,4.03,1.24,1.92,1.87,4.13,1.87,6.61,0,3.15-.95,5.75-2.84,7.8-1.89,2.06-4.72,3.35-8.48,3.88,1.87,1.07,3.42,2.25,4.64,3.52,1.21,1.28,2.86,3.55,4.92,6.81l5.23,8.19h-10.35l-6.25-9.13c-2.22-3.26-3.74-5.32-4.56-6.17-.82-.85-1.68-1.43-2.6-1.75-.91-.31-2.37-.47-4.36-.47h-1.75v17.52h-8.66ZM1451.98,594.18h6.4c4.16,0,6.75-.17,7.78-.52,1.03-.34,1.84-.93,2.42-1.77.59-.83.88-1.89.88-3.15,0-1.41-.38-2.56-1.15-3.42-.77-.87-1.86-1.42-3.26-1.64-.7-.1-2.81-.15-6.32-.15h-6.75v10.65Z"/>
  <path class="cls-1" d="M1525.18,618.4h-9.41l-3.74-9.53h-17.13l-3.54,9.53h-9.18l16.69-41.97h9.15l17.16,41.97ZM1509.25,601.79l-5.9-15.57-5.79,15.57h11.69Z"/>
  <polygon class="cls-1" points="1529.86 618.4 1529.86 576.43 1538.28 576.43 1555.82 604.46 1555.82 576.43 1563.86 576.43 1563.86 618.4 1555.18 618.4 1537.9 591.03 1537.9 618.4 1529.86 618.4"/>
  <path class="cls-1" d="M1611.66,618.4h-9.41l-3.74-9.53h-17.14l-3.54,9.53h-9.18l16.69-41.97h9.15l17.16,41.97ZM1595.73,601.79l-5.9-15.57-5.79,15.57h11.7ZM1584.85,574.02l4.04-8.56h9.21l-8.05,8.56h-5.2Z"/>
  <polygon class="cls-3" points="676.2 535.88 676.2 142.33 1045.21 142.33 1045.21 219.82 774.77 219.82 774.77 535.88 676.2 535.88"/>
  <path class="cls-1" d="M1084.89,535.03V242.3h94.85c35.94,0,59.37,1.47,70.29,4.39,16.77,4.39,30.82,13.95,42.13,28.66,11.31,14.71,16.97,33.71,16.97,57.01,0,17.97-3.27,33.08-9.78,45.33-6.53,12.25-14.81,21.87-24.86,28.85-10.05,7-20.27,11.62-30.65,13.88-14.11,2.79-34.54,4.19-61.3,4.19h-38.54v110.42h-59.11ZM1144,291.82v83.07h32.35c23.29,0,38.87-1.53,46.72-4.59,7.85-3.06,14.01-7.85,18.48-14.38,4.46-6.52,6.69-14.11,6.69-22.76,0-10.65-3.13-19.44-9.38-26.36-6.26-6.92-14.18-11.25-23.76-12.98-7.06-1.33-21.24-2-42.54-2h-28.55Z"/>
  <path class="cls-1" d="M1325.12,534.87V242.14h124.4c31.28,0,54.01,2.63,68.19,7.89,14.17,5.26,25.52,14.61,34.04,28.05,8.52,13.45,12.78,28.83,12.78,46.13,0,21.97-6.46,40.1-19.37,54.41-12.91,14.31-32.22,23.33-57.91,27.06,12.78,7.46,23.33,15.65,31.65,24.56,8.32,8.92,19.54,24.76,33.65,47.52l35.74,57.11h-70.69l-42.73-63.7c-15.18-22.76-25.56-37.11-31.15-43.03-5.59-5.92-11.51-9.99-17.77-12.18-6.26-2.2-16.17-3.3-29.75-3.3h-11.98v122.21h-59.11ZM1384.23,365.94h43.73c28.36,0,46.06-1.2,53.12-3.59,7.05-2.4,12.58-6.52,16.57-12.38,4-5.85,5.99-13.18,5.99-21.96,0-9.85-2.63-17.8-7.89-23.87-5.26-6.05-12.68-9.88-22.26-11.48-4.79-.67-19.17-1-43.13-1h-46.12v74.28Z"/>
</svg>